<svg width="24" height="25" viewBox="0 0 24 25" fill="none" xmlns="http://www.w3.org/2000/svg">
<path d="M4.58567 17.8713L5.26624 7.86502H18.7337L19.4142 17.8713C19.4525 18.4336 19.3749 18.9978 19.1861 19.5289C18.9973 20.06 18.7014 20.5466 18.3167 20.9585C17.9321 21.3705 17.4669 21.699 16.95 21.9238C16.4331 22.1485 15.8756 22.2647 15.312 22.265H8.68967C8.1259 22.2649 7.56817 22.1489 7.05109 21.9243C6.53401 21.6997 6.06861 21.3712 5.68378 20.9592C5.29895 20.5472 5.0029 20.0605 4.814 19.5293C4.6251 18.9981 4.54738 18.4338 4.58567 17.8713Z" stroke="#017242" stroke-width="2.4"/>
<path d="M8.40039 6.665C8.40039 5.71022 8.77967 4.79455 9.45481 4.11942C10.1299 3.44429 11.0456 3.065 12.0004 3.065C12.9552 3.065 13.8708 3.44429 14.546 4.11942C15.2211 4.79455 15.6004 5.71022 15.6004 6.665V9.065C15.6004 10.0198 15.2211 10.9355 14.546 11.6106C13.8708 12.2857 12.9552 12.665 12.0004 12.665C11.0456 12.665 10.1299 12.2857 9.45481 11.6106C8.77967 10.9355 8.40039 10.0198 8.40039 9.065V6.665Z" stroke="#017242" stroke-width="2.4"/>
</svg>
