<svg width="40" height="44" viewBox="0 0 40 44" fill="none" xmlns="http://www.w3.org/2000/svg">
<g clip-path="url(#clip0_207_4330)">
<g clip-path="url(#clip1_207_4330)">
<path d="M19.6614 38.0003C19.9516 38.0003 20.1862 37.7658 20.1862 37.4756V20.0003C20.1862 19.7112 19.9516 19.4756 19.6614 19.4756C19.3713 19.4756 19.1367 19.7101 19.1367 20.0003V37.4756C19.1367 37.7647 19.3713 38.0003 19.6614 38.0003Z" fill="black"/>
<path d="M16.8127 26.3179C16.9469 26.3179 17.0811 26.2666 17.1836 26.1641L19.6611 23.6877L22.1385 26.1641C22.3436 26.3692 22.6752 26.3692 22.8803 26.1641C23.0854 25.959 23.0854 25.6274 22.8803 25.4223L19.6622 22.2041L16.4429 25.4223C16.2378 25.6274 16.2378 25.959 16.4429 26.163C16.5454 26.2656 16.6796 26.3168 16.8138 26.3168L16.8127 26.3179Z" fill="black"/>
<path d="M23.7402 31.3025C23.8743 31.3025 24.0085 31.2512 24.1111 31.1487C24.3162 30.9436 24.3162 30.6119 24.1111 30.4069L19.6613 25.957L15.2114 30.4069C15.0063 30.6119 15.0063 30.9436 15.2114 31.1476C15.4165 31.3527 15.7482 31.3527 15.9533 31.1476L19.6623 27.4396L23.3703 31.1476C23.4729 31.2501 23.6071 31.3014 23.7413 31.3014L23.7402 31.3025Z" fill="black"/>
<path d="M18.9954 33.9641C19.1296 33.9641 19.2638 33.9128 19.3663 33.8103L19.6609 33.5158L19.9554 33.8103C20.1605 34.0154 20.4922 34.0154 20.6972 33.8103C20.9023 33.6052 20.9023 33.2736 20.6972 33.0696L19.6609 32.0332L18.6245 33.0696C18.4194 33.2747 18.4194 33.6063 18.6245 33.8103C18.7271 33.9128 18.8612 33.9641 18.9954 33.9641Z" fill="black"/>
<path d="M34.7974 29.2623C34.9785 29.2623 35.1552 29.1685 35.2523 29.0005C35.3974 28.7496 35.3112 28.4288 35.0603 28.2838L19.9239 19.5456C19.673 19.4016 19.3523 19.4867 19.2072 19.7376C19.0621 19.9885 19.1483 20.3092 19.3992 20.4543L34.5356 29.1925C34.6185 29.2405 34.7079 29.2623 34.7974 29.2623Z" fill="black"/>
<path d="M23.2546 25.887C23.2993 25.887 23.3451 25.8816 23.3909 25.8696C23.6702 25.7943 23.8371 25.5074 23.7618 25.227L22.8553 21.843L26.2393 20.9365C26.5186 20.8612 26.6855 20.5743 26.6102 20.294C26.5349 20.0136 26.248 19.8489 25.9677 19.923L21.5713 21.1012L22.7495 25.4976C22.8127 25.7321 23.0244 25.8859 23.2557 25.8859L23.2546 25.887Z" fill="black"/>
<path d="M26.9561 29.4454C27.0008 29.4454 27.0466 29.44 27.0924 29.428C27.3717 29.3527 27.5386 29.0658 27.4634 28.7854L26.1063 23.7203L31.1724 22.3633C31.4517 22.288 31.6186 22.0011 31.5434 21.7207C31.4681 21.4403 31.1812 21.2756 30.9008 21.3498L24.8223 22.9785L26.451 29.056C26.5143 29.2905 26.7259 29.4443 26.9572 29.4443L26.9561 29.4454Z" fill="black"/>
<path d="M30.9687 27.8199C31.0134 27.8199 31.0593 27.8144 31.1051 27.8024C31.3843 27.7271 31.5513 27.4402 31.476 27.1599L31.368 26.7573L31.7705 26.6493C32.0498 26.574 32.2167 26.2871 32.1414 26.0068C32.0662 25.7275 31.7793 25.5617 31.4989 25.6359L30.084 26.0155L30.4636 27.4304C30.5269 27.6649 30.7385 27.8188 30.9698 27.8188L30.9687 27.8199Z" fill="black"/>
<path d="M19.6621 20.525C19.7516 20.525 19.841 20.5021 19.9239 20.4552L35.0603 11.717C35.3112 11.5719 35.3974 11.2512 35.2523 11.0003C35.1072 10.7494 34.7865 10.6643 34.5356 10.8083L19.3992 19.5465C19.1483 19.6915 19.0621 20.0123 19.2072 20.2632C19.3043 20.4312 19.481 20.525 19.6621 20.525Z" fill="black"/>
<path d="M26.1032 20.0944C26.3344 20.0944 26.5461 19.9395 26.6093 19.706C26.6846 19.4267 26.5177 19.1387 26.2384 19.0635L22.8544 18.1569L23.761 14.7729C23.8362 14.4936 23.6693 14.2056 23.3901 14.1304C23.1108 14.0551 22.8228 14.222 22.7475 14.5013L21.5693 18.8976L25.9657 20.0758C26.0115 20.0878 26.0573 20.0933 26.1021 20.0933L26.1032 20.0944Z" fill="black"/>
<path d="M31.0363 18.6681C31.2676 18.6681 31.4792 18.5132 31.5425 18.2797C31.6178 18.0005 31.4509 17.7125 31.1716 17.6372L26.1054 16.2801L27.4625 11.215C27.5378 10.9357 27.3709 10.6477 27.0916 10.5725C26.8123 10.4983 26.5243 10.663 26.449 10.9434L24.8203 17.0219L30.8989 18.6506C30.9447 18.6626 30.9894 18.6681 31.0352 18.6681H31.0363Z" fill="black"/>
<path d="M31.6344 14.3808C31.8657 14.3808 32.0773 14.2259 32.1406 13.9924C32.2158 13.7131 32.0489 13.4251 31.7697 13.3499L31.3671 13.2419L31.4751 12.8393C31.5504 12.5601 31.3835 12.2721 31.1042 12.1968C30.8239 12.1215 30.5369 12.2884 30.4617 12.5677L30.082 13.9826L31.4969 14.3622C31.5428 14.3742 31.5886 14.3797 31.6333 14.3797L31.6344 14.3808Z" fill="black"/>
<path d="M19.6605 20.5247C19.9507 20.5247 20.1852 20.2902 20.1852 20V2.52473C20.1852 2.23564 19.9507 2 19.6605 2C19.3703 2 19.1357 2.23455 19.1357 2.52473V20C19.1357 20.2891 19.3703 20.5247 19.6605 20.5247Z" fill="black"/>
<path d="M19.6603 17.7964L22.8785 14.5783C23.0836 14.3732 23.0836 14.0415 22.8785 13.8364C22.6734 13.6313 22.3418 13.6313 22.1367 13.8364L19.6592 16.3128L17.1818 13.8364C16.9767 13.6313 16.645 13.6313 16.44 13.8364C16.2349 14.0415 16.2349 14.3732 16.44 14.5783L19.6592 17.7964H19.6603Z" fill="black"/>
<path d="M19.6604 14.0426L24.1102 9.59388C24.3153 9.38879 24.3153 9.05715 24.1102 8.85206C23.9051 8.64697 23.5735 8.64697 23.3684 8.85206L19.6604 12.5601L15.9513 8.85206C15.7462 8.64697 15.4146 8.64697 15.2095 8.85206C15.0044 9.05715 15.0044 9.38879 15.2095 9.59388L19.6593 14.0426H19.6604Z" fill="black"/>
<path d="M19.6599 7.96704L20.6963 6.93068C20.9014 6.72559 20.9014 6.39395 20.6963 6.18995C20.4912 5.98486 20.1595 5.98486 19.9545 6.18995L19.6599 6.4845L19.3654 6.18995C19.1603 5.98486 18.8286 5.98486 18.6235 6.18995C18.4185 6.39504 18.4185 6.72668 18.6235 6.93068L19.6599 7.96704Z" fill="black"/>
<path d="M19.6608 20.525C19.8419 20.525 20.0186 20.4312 20.1157 20.2632C20.2608 20.0123 20.1746 19.6915 19.9237 19.5465L4.78623 10.8083C4.53532 10.6643 4.21459 10.7494 4.0695 11.0003C3.92441 11.2512 4.01059 11.5719 4.2615 11.717L19.3979 20.4552C19.4808 20.5032 19.5702 20.525 19.6597 20.525H19.6608Z" fill="black"/>
<path d="M13.2187 20.0943C13.2634 20.0943 13.3092 20.0888 13.3551 20.0768L17.7514 18.8986L16.5732 14.5023C16.498 14.223 16.2111 14.0561 15.9307 14.1313C15.6514 14.2066 15.4845 14.4935 15.5598 14.7739L16.4663 18.1579L13.0823 19.0644C12.8031 19.1397 12.6362 19.4266 12.7114 19.707C12.7747 19.9415 12.9863 20.0953 13.2176 20.0953L13.2187 20.0943Z" fill="black"/>
<path d="M8.28608 18.6681C8.33081 18.6681 8.37663 18.6626 8.42245 18.6506L14.501 17.0219L12.8723 10.9434C12.797 10.663 12.5101 10.4983 12.2297 10.5725C11.9504 10.6477 11.7835 10.9346 11.8588 11.215L13.2159 16.2801L8.14972 17.6372C7.87045 17.7125 7.70354 17.9994 7.77881 18.2797C7.84208 18.5143 8.05372 18.6681 8.28499 18.6681H8.28608Z" fill="black"/>
<path d="M7.68647 14.3813C7.7312 14.3813 7.77702 14.3758 7.82284 14.3638L9.23775 13.9842L8.85811 12.5693C8.78284 12.29 8.49593 12.1242 8.21556 12.1984C7.93629 12.2736 7.76938 12.5605 7.84465 12.8409L7.95265 13.2434L7.55011 13.3514C7.27084 13.4267 7.10393 13.7136 7.1792 13.994C7.24247 14.2285 7.45411 14.3824 7.68538 14.3824L7.68647 14.3813Z" fill="black"/>
<path d="M4.52441 29.2623C4.61386 29.2623 4.70332 29.2394 4.78623 29.1925L19.9226 20.4543C20.1735 20.3092 20.2597 19.9885 20.1146 19.7376C19.9695 19.4867 19.6488 19.4016 19.3979 19.5456L4.2615 28.2838C4.01059 28.4288 3.92441 28.7496 4.0695 29.0005C4.16659 29.1685 4.34332 29.2623 4.52441 29.2623Z" fill="black"/>
<path d="M16.0669 25.8869C16.2982 25.8869 16.5099 25.732 16.5731 25.4986L17.7513 21.1022L13.3549 19.924C13.0757 19.8498 12.7877 20.0146 12.7124 20.2949C12.6371 20.5742 12.804 20.8622 13.0833 20.9375L16.4673 21.844L15.5608 25.228C15.4855 25.5073 15.6524 25.7953 15.9317 25.8706C15.9775 25.8826 16.0233 25.888 16.068 25.888L16.0669 25.8869Z" fill="black"/>
<path d="M12.366 29.4453C12.5972 29.4453 12.8089 29.2904 12.8721 29.057L14.5009 22.9795L8.42233 21.3508C8.14306 21.2766 7.85506 21.4413 7.77979 21.7217C7.70451 22.001 7.87142 22.289 8.15069 22.3642L13.2169 23.7213L11.8598 28.7864C11.7845 29.0657 11.9514 29.3537 12.2307 29.429C12.2765 29.441 12.3223 29.4464 12.3671 29.4464L12.366 29.4453Z" fill="black"/>
<path d="M8.35377 27.8201C8.58504 27.8201 8.79668 27.6652 8.85995 27.4318L9.23958 26.0168L7.82468 25.6372C7.54431 25.5619 7.2574 25.7288 7.18213 26.0081C7.10686 26.2874 7.27377 26.5754 7.55304 26.6507L7.95558 26.7587L7.84758 27.1612C7.77231 27.4405 7.93922 27.7285 8.21849 27.8038C8.26431 27.8158 8.31013 27.8212 8.35486 27.8212L8.35377 27.8201Z" fill="black"/>
</g>
</g>
<defs>
<clipPath id="clip0_207_4330">
<rect width="40" height="40" fill="white"/>
</clipPath>
<clipPath id="clip1_207_4330">
<rect width="40" height="40" fill="white"/>
</clipPath>
</defs>
</svg>
