<svg width="19" height="19" viewBox="0 0 19 19" fill="none" xmlns="http://www.w3.org/2000/svg">
<path d="M5.54175 13.4686L9.03537 13.4568L16.6607 5.90425C16.96 5.605 17.1246 5.20759 17.1246 4.78484C17.1246 4.36209 16.96 3.96467 16.6607 3.66542L15.4051 2.40984C14.8066 1.81134 13.7624 1.8145 13.1687 2.40746L5.54175 9.96155V13.4686ZM14.2857 3.52925L15.5437 4.78246L14.2794 6.03488L13.0238 4.78009L14.2857 3.52925ZM7.12508 10.6218L11.8988 5.89317L13.1544 7.14875L8.38146 11.8758L7.12508 11.8798V10.6218Z" fill="#333131"/>
<path d="M3.95833 16.625H15.0417C15.9149 16.625 16.625 15.9149 16.625 15.0417V8.1795L15.0417 9.76283V15.0417H6.45842C6.43783 15.0417 6.41646 15.0496 6.39588 15.0496C6.36975 15.0496 6.34363 15.0425 6.31671 15.0417H3.95833V3.95833H9.37888L10.9622 2.375H3.95833C3.08512 2.375 2.375 3.08512 2.375 3.95833V15.0417C2.375 15.9149 3.08512 16.625 3.95833 16.625Z" fill="#333131"/>
</svg>
