<svg width="40" height="44" viewBox="0 0 40 44" fill="none" xmlns="http://www.w3.org/2000/svg">
<g clip-path="url(#clip0_207_4292)">
<g clip-path="url(#clip1_207_4292)">
<path d="M6.257 16.7121C5.94571 16.6894 5.62964 16.6511 5.30519 16.5792C4.97115 16.5062 4.89693 15.995 5.15433 15.7986C6.68202 14.6313 7.79546 13.124 9.09926 11.7328C10.2271 10.5296 11.5656 9.75613 13.0119 9.02941C12.1822 7.43108 11.5476 5.72261 11.2579 3.94111C11.0053 2.38708 11.8685 2.39666 13.2573 2.01234C13.4967 1.9465 13.7506 2.15482 13.7925 2.38229C14.1277 4.2069 14.7419 5.90699 15.6183 7.53045C16.9472 6.95458 18.3049 6.49962 19.7512 6.30687C21.5518 6.06622 23.4399 6.49124 25.1507 5.76691C25.4752 5.62923 25.826 5.8591 25.8092 6.21707C25.7949 6.51279 25.735 6.77978 25.656 7.0336C36.8371 7.80103 35.216 24.2715 32.7006 31.5987C31.5907 34.8337 29.9637 37.8962 26.1971 37.9956C21.1747 38.1285 15.9643 35.1725 12.2576 32.0381C8.05167 28.4823 2.6473 22.1847 6.257 16.7121ZM15.6051 8.53375C15.4279 8.61396 15.2687 8.57206 15.1501 8.47867C15.1346 8.46909 15.119 8.45832 15.1046 8.44635C15.1011 8.44275 15.0975 8.43797 15.0939 8.43318C15.0556 8.39965 15.0184 8.36493 14.9897 8.31345C14.0415 6.65167 13.3914 4.89531 12.9987 3.03479C12.8323 3.08029 12.6659 3.12698 12.5006 3.17248C12.0529 3.16769 11.9415 3.36882 12.1642 3.77709C12.1091 4.2488 12.4049 4.95158 12.5318 5.40654C12.8873 6.67921 13.4093 7.87406 14.0415 9.0306C14.1301 9.19343 14.1037 9.33949 14.0247 9.45443C13.9852 9.53105 13.9278 9.60169 13.8296 9.65078C11.8098 10.6433 10.3731 11.6657 8.91608 13.3383C8.15583 14.2111 7.40516 15.0623 6.55272 15.8286C8.9508 15.9172 10.943 14.3164 12.4216 12.4727C12.7185 12.1015 13.2525 12.2991 13.2621 12.766C13.292 14.2314 13.8966 15.2599 14.7215 16.3182C15.5273 15.1593 16.0948 13.9597 15.5608 12.4703C15.4243 12.0896 15.8374 11.5724 16.2313 11.8884C17.6751 13.051 19.3142 13.2461 21.0538 13.0845C20.4779 11.8381 19.9463 10.4182 18.5838 9.84952C18.1229 9.65676 18.2271 8.89412 18.7718 8.95757C20.5713 9.16589 23.9774 8.87017 24.7353 6.86838C23.8541 7.09466 23.0053 7.09346 22.0319 7.11142C19.7404 7.15212 17.7087 7.57954 15.6063 8.53375H15.6051ZM16.1415 33.7286C19.2328 35.643 26.2079 39.2072 29.4489 35.813C32.6778 32.432 33.3638 26.1177 33.5123 21.7094C33.7051 15.9878 32.5557 8.28472 25.365 7.93153C25.3136 7.92914 25.2729 7.91237 25.2322 7.89681C24.2325 9.29639 22.1109 9.85431 20.2552 9.92854C21.1076 10.8289 21.5267 12.0572 22.166 13.2712C22.3013 13.5275 22.1253 13.8842 21.8344 13.9237C20.0098 14.1704 18.2163 14.1045 16.6407 13.2557C16.77 14.7439 16.0996 16.0201 15.1214 17.3371C14.9502 17.567 14.5898 17.622 14.3935 17.3826C13.474 16.2584 12.758 15.1461 12.4767 13.8076C11.0639 15.3317 9.36026 16.4811 7.37882 16.6966C7.36684 16.7205 7.36325 16.7433 7.34529 16.766C2.65688 22.9246 11.2148 30.6792 16.1415 33.731V33.7286Z" fill="black"/>
<path d="M26.4639 12.8846C26.4615 12.8786 26.4639 12.8726 26.4615 12.8654C26.3346 12.5876 26.5477 12.2979 26.8147 12.244C26.9775 12.1949 27.1451 12.2357 27.2445 12.4033C27.6048 12.8067 28.0634 13.2126 28.3328 13.6819C28.5746 14.1034 28.5112 14.7128 27.988 14.8732C26.9188 15.2 26.6842 13.5299 26.4651 12.8846H26.4639Z" fill="black"/>
<path d="M21.9938 16.2209C22.1614 16.1228 22.3745 16.1192 22.5314 16.3179C22.8762 16.7561 23.3108 17.1907 23.573 17.6852C23.7981 18.109 23.7107 18.7148 23.1935 18.8645C22.7337 18.9974 22.3446 18.6118 22.1459 18.2383C21.8956 17.7678 21.8729 17.2087 21.7328 16.7022C21.6634 16.4508 21.8047 16.2844 21.9938 16.2197V16.2209Z" fill="black"/>
<path d="M28.446 18.74C28.6148 18.6334 28.8315 18.6263 28.986 18.8358C29.3188 19.2847 29.7343 19.7337 29.9881 20.233C30.2048 20.6604 30.109 21.265 29.5918 21.4111C29.1297 21.5416 28.7453 21.1441 28.5562 20.7681C28.3167 20.2916 28.3119 19.7313 28.1862 19.2213C28.1264 18.9747 28.2617 18.8094 28.4448 18.74H28.446Z" fill="black"/>
<path d="M16.0696 21.2864C15.5943 21.3702 15.2423 20.9464 15.0867 20.5489C14.8999 20.0748 14.9178 19.5588 14.8352 19.0631C14.767 18.8811 14.8412 18.7243 14.9825 18.6273C15.192 18.4549 15.5476 18.4681 15.6853 18.7399C15.6889 18.7459 15.6949 18.7483 15.6985 18.753C15.9858 19.2008 16.3713 19.6594 16.5677 20.155C16.7424 20.5956 16.6 21.1918 16.0696 21.2852V21.2864Z" fill="black"/>
<path d="M21.4624 22.9002C21.6312 22.7936 21.8479 22.7864 22.0024 22.9959C22.3352 23.4449 22.7507 23.8927 23.0045 24.3931C23.2212 24.8205 23.1254 25.4251 22.6082 25.5712C22.146 25.7017 21.7617 25.3042 21.5726 24.9283C21.3331 24.4518 21.3283 23.8915 21.2038 23.3814C21.1439 23.1348 21.2792 22.9696 21.4624 22.9002Z" fill="black"/>
<path d="M9.38527 20.1873C9.55408 20.0807 9.77078 20.0735 9.92522 20.283C10.2569 20.732 10.6735 21.1798 10.9273 21.6802C11.144 22.1076 11.0482 22.7123 10.531 22.8583C10.0701 22.9888 9.68458 22.5913 9.49541 22.2154C9.25596 21.7389 9.25117 21.1786 9.12666 20.6686C9.0668 20.4219 9.20209 20.2567 9.38527 20.1873Z" fill="black"/>
<path d="M26.0005 31.6082C26.1693 31.5016 26.386 31.4944 26.5405 31.7039C26.8721 32.1529 27.2887 32.6007 27.5426 33.1011C27.7593 33.5285 27.6635 34.1332 27.1463 34.2792C26.6841 34.4097 26.2998 34.0122 26.1106 33.6363C25.8712 33.1598 25.8664 32.5995 25.7419 32.0895C25.682 31.8428 25.8173 31.6776 26.0005 31.6082Z" fill="black"/>
<path d="M19.5796 29.5115C19.7484 29.4049 19.9651 29.3977 20.1196 29.6073C20.4512 30.0562 20.8678 30.504 21.1217 31.0045C21.3384 31.4319 21.2426 32.0365 20.7254 32.1825C20.2644 32.313 19.8789 31.9156 19.6897 31.5396C19.4503 31.0631 19.4455 30.5028 19.321 29.9928C19.2611 29.7461 19.3964 29.5809 19.5796 29.5115Z" fill="black"/>
<path d="M27.7319 25.1189C27.9008 25.0124 28.1175 25.0052 28.2719 25.2147C28.6047 25.6637 29.0202 26.1126 29.274 26.6119C29.4907 27.0393 29.3949 27.6439 28.8777 27.79C28.4156 27.9205 28.0313 27.523 27.8421 27.147C27.6026 26.6705 27.5979 26.1102 27.4733 25.6002C27.4135 25.3536 27.5488 25.1883 27.7319 25.1189Z" fill="black"/>
<path d="M14.6809 25.3806C14.8498 25.2741 15.0665 25.2669 15.2221 25.4764C15.5537 25.9254 15.9704 26.3743 16.2242 26.8736C16.4409 27.301 16.3451 27.9056 15.8279 28.0517C15.3658 28.1822 14.9815 27.7847 14.7923 27.4088C14.5528 26.9323 14.5481 26.3719 14.4235 25.8619C14.3637 25.6153 14.499 25.4501 14.6809 25.3806Z" fill="black"/>
</g>
</g>
<defs>
<clipPath id="clip0_207_4292">
<rect width="40" height="40" fill="white"/>
</clipPath>
<clipPath id="clip1_207_4292">
<rect width="40" height="40" fill="white"/>
</clipPath>
</defs>
</svg>
