<svg width="22" height="19" viewBox="0 0 22 19" fill="none" xmlns="http://www.w3.org/2000/svg">
<g clip-path="url(#clip0_588_1552)">
<path d="M19.8703 9.49928C19.875 11.2048 19.485 12.8872 18.7324 14.4087C18.6108 14.6513 18.5822 14.9317 18.6523 15.1948C18.7224 15.4579 18.8861 15.6846 19.1111 15.8304C19.3484 15.9844 19.6356 16.0359 19.9099 15.9735C20.1841 15.9111 20.423 15.7399 20.5742 15.4974C20.5916 15.4697 20.6073 15.4414 20.6214 15.4125C21.5269 13.5835 21.9987 11.5616 21.9987 9.51093C21.9987 7.46024 21.5269 5.43841 20.6214 3.60933C20.492 3.35284 20.2684 3.15947 19.9999 3.07175C19.7313 2.98402 19.4397 3.00913 19.1892 3.14153L19.1079 3.1898C18.8832 3.33552 18.7198 3.56194 18.6498 3.82465C18.5797 4.08737 18.608 4.36741 18.7291 4.60985C19.4797 6.12506 19.8707 7.80024 19.8703 9.49928Z" fill="white"/>
<path d="M16.4289 9.49906C16.4313 10.5563 16.2094 11.6014 15.7786 12.5622C15.6706 12.8026 15.6517 13.0749 15.7252 13.3285C15.7988 13.5821 15.9599 13.7997 16.1785 13.9407C16.3072 14.0242 16.4519 14.0785 16.6028 14.0999C16.7537 14.1213 16.9073 14.1094 17.0534 14.0649C17.1994 14.0204 17.3344 13.9444 17.4493 13.842C17.5643 13.7396 17.6564 13.6132 17.7196 13.4712C18.2751 12.2254 18.5625 10.8719 18.5625 9.50239C18.5625 8.13289 18.2751 6.77938 17.7196 5.53358C17.6564 5.39234 17.5644 5.26656 17.4498 5.16464C17.3352 5.06272 17.2008 4.98701 17.0553 4.94257C16.9099 4.89813 16.7569 4.88599 16.6066 4.90695C16.4562 4.92791 16.3119 4.98149 16.1834 5.06412C15.9648 5.2051 15.8037 5.42266 15.7301 5.67626C15.6566 5.92986 15.6755 6.2022 15.7835 6.44254C16.2117 7.40168 16.4319 8.44444 16.4289 9.49906Z" fill="white"/>
<path d="M9.27587 16.8226C8.13857 16.8223 7.01773 16.5444 6.00633 16.0117C4.99493 15.4791 4.12212 14.7072 3.46032 13.7601C2.79852 12.8129 2.36681 11.7178 2.20099 10.5656C2.03517 9.41335 2.14004 8.23726 2.50688 7.13486C2.87373 6.03245 3.49198 5.03552 4.31034 4.22676C5.1287 3.418 6.12359 2.82072 7.21246 2.4845C8.30133 2.14827 9.4528 2.08278 10.5713 2.29345C11.6899 2.50413 12.7432 2.9849 13.644 3.69588C13.8483 3.85852 14.1035 3.93929 14.3617 3.92305C14.62 3.9068 14.8636 3.79466 15.0469 3.60765C15.1537 3.49838 15.2364 3.36706 15.2897 3.22244C15.343 3.07783 15.3655 2.92325 15.3558 2.76901C15.3461 2.61478 15.3044 2.46443 15.2335 2.328C15.1626 2.19157 15.0641 2.07219 14.9445 1.97784C13.5711 0.892197 11.928 0.222619 10.2017 0.0451082C8.47538 -0.132402 6.73506 0.18927 5.17828 0.973605C3.62151 1.75794 2.31064 2.97352 1.3945 4.48234C0.478357 5.99117 -0.00636328 7.73281 -0.00463406 9.50953C-0.00290484 11.2863 0.485205 13.0269 1.40428 14.5339C2.32336 16.0408 3.63659 17.2537 5.19489 18.0349C6.75319 18.816 8.49413 19.1341 10.2201 18.9531C11.946 18.7721 13.5879 18.0991 14.9592 17.0107C15.0763 16.9175 15.1727 16.7999 15.242 16.6656C15.3114 16.5314 15.3521 16.3836 15.3615 16.232C15.3709 16.0804 15.3487 15.9285 15.2964 15.7864C15.2442 15.6443 15.163 15.5151 15.0583 15.4075L15.0356 15.3842C14.8543 15.2015 14.6144 15.0925 14.3605 15.0775C14.1066 15.0625 13.856 15.1425 13.6554 15.3026C12.4012 16.2939 10.8601 16.8287 9.27587 16.8226Z" fill="white"/>
<path d="M14.9803 8.70181C14.7757 8.49019 14.4974 8.37044 14.2065 8.36885H9.11009C8.96211 8.36302 8.8145 8.38784 8.67611 8.44181C8.53772 8.49578 8.41138 8.5778 8.30468 8.68296C8.19797 8.78811 8.11308 8.91424 8.0551 9.05378C7.99711 9.19332 7.96723 9.34341 7.96723 9.49507C7.96723 9.64672 7.99711 9.79681 8.0551 9.93635C8.11308 10.0759 8.19797 10.202 8.30468 10.3072C8.41138 10.4123 8.53772 10.4944 8.67611 10.5483C8.8145 10.6023 8.96211 10.6271 9.11009 10.6213H12.945C12.7128 11.4048 12.2466 12.0941 11.6119 12.5921C10.9772 13.0902 10.206 13.3719 9.40684 13.3977C8.60765 13.4236 7.82067 13.1922 7.1566 12.7361C6.49252 12.28 5.98478 11.6222 5.70479 10.8552C5.42481 10.0882 5.38667 9.25067 5.59574 8.46033C5.80481 7.66999 6.25057 6.96666 6.87032 6.44928C7.49006 5.9319 8.25261 5.6265 9.05068 5.57605C9.84874 5.5256 10.6422 5.73263 11.3194 6.16803C11.5317 6.3029 11.7825 6.35988 12.0306 6.32963C12.2787 6.29938 12.5094 6.1837 12.6849 6.00155C12.8006 5.88268 12.8889 5.73876 12.9432 5.58038C12.9975 5.422 13.0164 5.25317 12.9987 5.0863C12.9809 4.91944 12.9268 4.75877 12.8405 4.6161C12.7541 4.47343 12.6376 4.35239 12.4996 4.26187C11.1548 3.39632 9.53248 3.10468 7.98026 3.44946C6.84702 3.69543 5.80871 4.27527 4.99306 5.11765C4.17741 5.96002 3.62 7.02818 3.38941 8.19072C3.21271 9.03681 3.21166 9.91149 3.38635 10.758C3.56104 11.6045 3.90754 12.404 4.4034 13.1046C4.89926 13.8051 5.53339 14.3911 6.26465 14.8245C6.99591 15.2579 7.80797 15.529 8.64815 15.6202C9.48833 15.7115 10.3379 15.6209 11.1416 15.3543C11.9454 15.0876 12.6855 14.6509 13.3138 14.0725C13.9422 13.4941 14.4448 12.7869 14.789 11.9967C15.1332 11.2066 15.3114 10.3511 15.312 9.48591C15.306 9.19014 15.1869 8.90857 14.9803 8.70181Z" fill="white"/>
</g>
<defs>
<clipPath id="clip0_588_1552">
<rect width="22" height="19" fill="white"/>
</clipPath>
</defs>
</svg>
