<svg width="28" height="20" viewBox="0 0 28 20" fill="none" xmlns="http://www.w3.org/2000/svg">
<path d="M26.7832 3.55874C26.4765 2.40396 25.5727 1.49448 24.4252 1.18584C22.3452 0.625 14.0048 0.625 14.0048 0.625C14.0048 0.625 5.6645 0.625 3.58449 1.18584C2.43697 1.49453 1.5332 2.40396 1.22645 3.55874C0.669128 5.65186 0.669128 10.0189 0.669128 10.0189C0.669128 10.0189 0.669128 14.386 1.22645 16.4791C1.5332 17.6339 2.43697 18.5055 3.58449 18.8142C5.6645 19.375 14.0048 19.375 14.0048 19.375C14.0048 19.375 22.3452 19.375 24.4252 18.8142C25.5727 18.5055 26.4765 17.6339 26.7832 16.4791C27.3406 14.386 27.3406 10.0189 27.3406 10.0189C27.3406 10.0189 27.3406 5.65186 26.7832 3.55874ZM11.2771 13.9839V6.05396L18.248 10.019L11.2771 13.9839Z" fill="white"/>
</svg>
