<svg width="24" height="40" viewBox="0 0 24 40" fill="none" xmlns="http://www.w3.org/2000/svg">
<g clip-path="url(#clip0_340_820)">
<path d="M1.99922 18.0002H1.44922C1.44922 18.1461 1.50716 18.286 1.61031 18.3891C1.71345 18.4922 1.85335 18.5502 1.99922 18.5502V18.0002ZM1.99922 16.4622V15.9122C1.85335 15.9122 1.71345 15.9701 1.61031 16.0733C1.50716 16.1764 1.44922 16.3163 1.44922 16.4622H1.99922ZM21.9992 16.4622H22.5492C22.5492 16.3163 22.4913 16.1764 22.3881 16.0733C22.285 15.9701 22.1451 15.9122 21.9992 15.9122V16.4622ZM21.9992 18.0002V18.5502C22.1451 18.5502 22.285 18.4922 22.3881 18.3891C22.4913 18.286 22.5492 18.1461 22.5492 18.0002H21.9992ZM2.99922 16.4622V17.0122C3.13971 17.0124 3.27496 16.9589 3.37724 16.8626C3.47951 16.7663 3.54104 16.6344 3.54922 16.4942L2.99922 16.4622ZM20.9512 16.4622L20.4022 16.4912C20.4099 16.6318 20.4712 16.7641 20.5735 16.8609C20.6759 16.9576 20.8114 17.0114 20.9522 17.0112V16.4612L20.9512 16.4622ZM2.54922 18.0002V16.4622H1.44922V18.0002H2.54922ZM21.4492 16.4622V18.0002H22.5492V16.4622H21.4492ZM1.99922 17.0122H2.99922V15.9122H1.99922V17.0122ZM2.99922 16.4622L3.54922 16.4942V16.4792L3.55422 16.4172C3.56022 16.3622 3.56822 16.2772 3.58222 16.1692C3.61122 15.9522 3.66122 15.6392 3.74622 15.2612C3.91822 14.5032 4.23022 13.4992 4.79122 12.5002C5.89922 10.5282 7.98022 8.5502 11.9992 8.5502V7.4502C7.51922 7.4502 5.10022 9.7022 3.83222 11.9622C3.30258 12.9205 2.91264 13.9496 2.67422 15.0182C2.57708 15.4463 2.50529 15.8797 2.45922 16.3162C2.45618 16.3505 2.45351 16.3848 2.45122 16.4192V16.4282C2.45022 16.4282 2.45022 16.4292 2.99922 16.4622ZM11.9992 8.5502C16.0182 8.5502 18.0872 10.5282 19.1822 12.4982C19.6553 13.3643 20.0018 14.2938 20.2112 15.2582C20.2953 15.6396 20.3571 16.0256 20.3962 16.4142C20.3985 16.4392 20.4005 16.4642 20.4022 16.4892V16.4922L20.9522 16.4612L21.5012 16.4322V16.4282L21.5002 16.4222C21.5002 16.4162 21.5002 16.4092 21.4982 16.3992C21.4902 16.2755 21.4778 16.1521 21.4612 16.0292C21.4312 15.7842 21.3772 15.4362 21.2852 15.0212C21.1022 14.1922 20.7652 13.0812 20.1432 11.9642C18.8882 9.7032 16.4812 7.4502 11.9992 7.4502V8.5502ZM20.9512 17.0122H21.9992V15.9122H20.9512V17.0122ZM2.99922 17.4502H1.99922V18.5502H2.99922V17.4502ZM21.9992 17.4502H20.9512V18.5502H21.9992V17.4502ZM20.4032 17.9602L19.0512 36.5702L20.1492 36.6502L21.4992 18.0402L20.4032 17.9612V17.9602ZM18.1042 37.4502H6.35722V38.5502H18.1042V37.4502ZM20.9512 17.4502H2.99922V18.5502H20.9512V17.4502ZM5.41122 36.5942L3.54622 17.9452L2.45222 18.0552L4.31722 36.7042L5.41122 36.5942ZM19.0512 36.5702C19.0338 36.8095 18.9265 37.0323 18.7508 37.1957C18.5751 37.3592 18.3441 37.4501 18.1042 37.4502V38.5502C18.6222 38.5503 19.121 38.3543 19.5004 38.0017C19.8798 37.649 20.1116 37.1658 20.1492 36.6492L19.0512 36.5702ZM6.35722 37.4502C6.12142 37.4504 5.89399 37.3628 5.71915 37.2046C5.54431 37.0464 5.43455 36.8288 5.41122 36.5942L4.31722 36.7042C4.36781 37.2101 4.60458 37.6791 4.98155 38.0202C5.35853 38.3614 5.84881 38.5502 6.35722 38.5502V37.4502Z" fill="#6B6B6B"/>
<path fill-rule="evenodd" clip-rule="evenodd" d="M12 29.9C13.0343 29.9 14.0263 29.4891 14.7577 28.7577C15.4891 28.0263 15.9 27.0343 15.9 26C15.9 24.9657 15.4891 23.9737 14.7577 23.2423C14.0263 22.5109 13.0343 22.1 12 22.1C10.9657 22.1 9.97368 22.5109 9.24228 23.2423C8.51089 23.9737 8.1 24.9657 8.1 26C8.1 27.0343 8.51089 28.0263 9.24228 28.7577C9.97368 29.4891 10.9657 29.9 12 29.9ZM12 31C13.3261 31 14.5979 30.4732 15.5355 29.5355C16.4732 28.5979 17 27.3261 17 26C17 24.6739 16.4732 23.4021 15.5355 22.4645C14.5979 21.5268 13.3261 21 12 21C10.6739 21 9.40215 21.5268 8.46447 22.4645C7.52678 23.4021 7 24.6739 7 26C7 27.3261 7.52678 28.5979 8.46447 29.5355C9.40215 30.4732 10.6739 31 12 31Z" fill="#6B6B6B"/>
</g>
<defs>
<clipPath id="clip0_340_820">
<rect width="24" height="40" fill="white"/>
</clipPath>
</defs>
</svg>
