<svg width="22" height="22" viewBox="0 0 22 22" fill="none" xmlns="http://www.w3.org/2000/svg">
<path d="M5.86719 17.7237L9.91244 17.7099L18.7418 8.96491C19.0883 8.61841 19.2789 8.15824 19.2789 7.66874C19.2789 7.17924 19.0883 6.71908 18.7418 6.37258L17.2879 4.91874C16.5949 4.22574 15.3859 4.22941 14.6984 4.91599L5.86719 13.6628V17.7237ZM15.9918 6.21491L17.4484 7.66599L15.9844 9.11616L14.5306 7.66324L15.9918 6.21491ZM7.70052 14.4273L13.228 8.95208L14.6819 10.4059L9.15527 15.8793L7.70052 15.8839V14.4273Z" fill="#121212"/>
<path d="M4.56322 20.5333H15.9706C16.8694 20.5333 17.6003 19.8024 17.6003 18.9037V11.8409L15.9706 13.4705V18.9037H7.13641C7.11522 18.9037 7.09322 18.9118 7.07204 18.9118C7.04515 18.9118 7.01826 18.9045 6.99056 18.9037H4.56322V7.49627H10.1423L11.7719 5.86664H4.56322C3.66448 5.86664 2.93359 6.59753 2.93359 7.49627V18.9037C2.93359 19.8024 3.66448 20.5333 4.56322 20.5333Z" fill="#121212"/>
</svg>
