<svg width="9" height="14" viewBox="0 0 9 14" fill="none" xmlns="http://www.w3.org/2000/svg">
<path fill-rule="evenodd" clip-rule="evenodd" d="M7.9895 0.409901C8.25196 0.67244 8.3994 1.02847 8.3994 1.3997C8.3994 1.77093 8.25196 2.12696 7.9895 2.3895L3.3793 6.9997L7.9895 11.6099C8.24452 11.8739 8.38563 12.2276 8.38244 12.5947C8.37925 12.9617 8.23202 13.3129 7.97245 13.5724C7.71288 13.832 7.36174 13.9793 6.99466 13.9824C6.62759 13.9856 6.27394 13.8445 6.0099 13.5895L0.409901 7.9895C0.147442 7.72696 0 7.37093 0 6.9997C0 6.62847 0.147442 6.27244 0.409901 6.0099L6.0099 0.409901C6.27244 0.147442 6.62847 0 6.9997 0C7.37093 0 7.72696 0.147442 7.9895 0.409901Z" fill="#6B7280"/>
</svg>
