<svg width="30" height="30" viewBox="0 0 30 30" fill="none" xmlns="http://www.w3.org/2000/svg">
<path d="M5.73258 21.5079L6.58329 9H23.4176L24.2683 21.5079C24.3161 22.2108 24.2191 22.916 23.9831 23.5798C23.7471 24.2437 23.3772 24.8519 22.8964 25.3669C22.4156 25.8819 21.8341 26.2925 21.188 26.5735C20.5419 26.8544 19.845 26.9996 19.1404 27H10.8626C10.1579 26.9999 9.4607 26.8549 8.81435 26.5741C8.168 26.2933 7.58625 25.8827 7.10521 25.3677C6.62418 24.8527 6.25411 24.2443 6.01799 23.5803C5.78186 22.9164 5.68472 22.2109 5.73258 21.5079Z" stroke="#017242" stroke-width="2.4"/>
<path d="M10.5 7.5C10.5 6.30653 10.9741 5.16193 11.818 4.31802C12.6619 3.47411 13.8065 3 15 3C16.1935 3 17.3381 3.47411 18.182 4.31802C19.0259 5.16193 19.5 6.30653 19.5 7.5V10.5C19.5 11.6935 19.0259 12.8381 18.182 13.682C17.3381 14.5259 16.1935 15 15 15C13.8065 15 12.6619 14.5259 11.818 13.682C10.9741 12.8381 10.5 11.6935 10.5 10.5V7.5Z" stroke="#017242" stroke-width="2.4"/>
</svg>
