<svg width="17" height="16" viewBox="0 0 17 16" fill="none" xmlns="http://www.w3.org/2000/svg">
<path d="M12.9934 14.0007C14.282 14.0007 15.3267 12.956 15.3267 11.6673C15.3267 10.3787 14.282 9.33398 12.9934 9.33398C11.7047 9.33398 10.66 10.3787 10.66 11.6673C10.66 12.956 11.7047 14.0007 12.9934 14.0007Z" stroke="#71717A" stroke-width="1.33333" stroke-linecap="round" stroke-linejoin="round"/>
<path d="M4.32668 14.0007C5.61535 14.0007 6.66001 12.956 6.66001 11.6673C6.66001 10.3787 5.61535 9.33398 4.32668 9.33398C3.03802 9.33398 1.99335 10.3787 1.99335 11.6673C1.99335 12.956 3.03802 14.0007 4.32668 14.0007Z" stroke="#71717A" stroke-width="1.33333" stroke-linecap="round" stroke-linejoin="round"/>
<path d="M10.66 3.99935C11.0282 3.99935 11.3267 3.70087 11.3267 3.33268C11.3267 2.96449 11.0282 2.66602 10.66 2.66602C10.2918 2.66602 9.99335 2.96449 9.99335 3.33268C9.99335 3.70087 10.2918 3.99935 10.66 3.99935Z" stroke="#71717A" stroke-width="1.33333" stroke-linecap="round" stroke-linejoin="round"/>
<path d="M8.66003 11.6673V9.33398L6.66003 7.33398L9.3267 5.33398L10.66 7.33398H11.9934" stroke="#71717A" stroke-width="1.33333" stroke-linecap="round" stroke-linejoin="round"/>
</svg>
