<svg width="18" height="15" viewBox="0 0 18 15" fill="none" xmlns="http://www.w3.org/2000/svg">
<path fill-rule="evenodd" clip-rule="evenodd" d="M11.267 0C11.802 0 12.299 0.287 12.566 0.75L13.289 2H16.5C17.327 2 18 2.673 18 3.5V13.5C18 14.327 17.327 15 16.5 15H1.5C0.673 15 0 14.327 0 13.5V3.5C0 2.673 0.673 2 1.5 2H4.718L5.484 0.727C5.753 0.279 6.245 0 6.769 0H11.267ZM9 4C6.795 4 5 5.794 5 8C5 9.266 5.611 10.47 6.634 11.223C7.329 11.735 8.152 11.999 9 11.999C9.418 11.999 9.843 11.935 10.261 11.805C11.458 11.433 12.433 10.458 12.805 9.261C13.2 7.994 12.988 6.672 12.223 5.633C11.471 4.611 10.266 4 9 4ZM9.0003 5.0003C9.9493 5.0003 10.8533 5.4583 11.4183 6.2263C11.9923 7.0063 12.1493 8.0033 11.8503 8.9643C11.5743 9.8523 10.8513 10.5733 9.9643 10.8503C9.0033 11.1483 8.0043 10.9913 7.2263 10.4173C6.4583 9.8533 6.0003 8.9493 6.0003 8.0003C6.0003 6.3463 7.3463 5.0003 9.0003 5.0003Z" fill="white"/>
</svg>
