<svg width="24" height="40" viewBox="0 0 24 40" fill="none" xmlns="http://www.w3.org/2000/svg">
<g clip-path="url(#clip0_340_844)">
<path d="M3.00039 11.0002V10.4502H2.40039L2.45239 11.0482L3.00039 11.0002ZM21.0004 11.0002L21.5504 11.0322L21.5834 10.4502H21.0004V11.0002ZM19.4954 36.9642L20.0444 36.9962L19.4944 36.9642H19.4954ZM3.00039 11.5502H21.0004V10.4502H3.00039V11.5502ZM20.4504 10.9682L18.9464 36.9322L20.0444 36.9962L21.5504 11.0322L20.4504 10.9682ZM18.3984 37.4502H6.35739V38.5502H18.3974V37.4502H18.3984ZM5.80939 36.9482L3.54939 10.9522L2.45339 11.0482L4.71339 37.0432L5.80939 36.9482ZM6.35739 37.4502C6.21981 37.4502 6.08722 37.3987 5.98578 37.3058C5.88433 37.2128 5.8214 37.0852 5.80939 36.9482L4.71439 37.0432C4.75016 37.4544 4.93872 37.8372 5.24287 38.1162C5.54702 38.3951 5.94467 38.55 6.35739 38.5502V37.4502ZM18.9474 36.9322C18.9392 37.0724 18.8777 37.2043 18.7754 37.3006C18.6731 37.3969 18.5379 37.4504 18.3974 37.4502V38.5502C18.8185 38.5504 19.2238 38.3896 19.5302 38.1007C19.8366 37.8117 20.0199 37.4166 20.0444 36.9962L18.9474 36.9322Z" fill="#6B6B6B"/>
<path d="M1.99922 11.0002H1.44922C1.44922 11.3042 1.69522 11.5502 1.99922 11.5502V11.0002ZM1.99922 9.4622V8.9122C1.85335 8.9122 1.71345 8.97014 1.61031 9.07329C1.50716 9.17643 1.44922 9.31633 1.44922 9.4622H1.99922ZM21.9992 9.4622H22.5492C22.5492 9.31633 22.4913 9.17643 22.3881 9.07329C22.285 8.97014 22.1451 8.9122 21.9992 8.9122V9.4622ZM21.9992 11.0002V11.5502C22.1451 11.5502 22.285 11.4922 22.3881 11.3891C22.4913 11.286 22.5492 11.1461 22.5492 11.0002H21.9992ZM2.99922 9.4622V10.0122C3.13971 10.0124 3.27496 9.9589 3.37724 9.86258C3.47951 9.76626 3.54104 9.63445 3.54922 9.4942L2.99922 9.4622ZM20.9512 9.4622L20.4022 9.4912C20.4099 9.6318 20.4712 9.76411 20.5735 9.86085C20.6759 9.95759 20.8114 10.0114 20.9522 10.0112V9.4612L20.9512 9.4622ZM2.54922 11.0002V9.4622H1.44922V11.0002H2.54922ZM21.4492 9.4622V11.0002H22.5492V9.4622H21.4492ZM21.9992 10.4502H1.99922V11.5502H21.9992V10.4502ZM1.99922 10.0122H2.99922V8.9122H1.99922V10.0122ZM2.99922 9.4622L3.54922 9.4942V9.4802L3.55422 9.4182C3.56022 9.3632 3.56822 9.2782 3.58222 9.1702C3.61122 8.9532 3.66122 8.6402 3.74622 8.2622C3.91822 7.5042 4.23022 6.5002 4.79122 5.5012C5.89922 3.5282 7.98022 1.5502 11.9992 1.5502V0.450195C7.51922 0.450195 5.10022 2.7022 3.83222 4.9622C3.30258 5.92048 2.91264 6.94956 2.67422 8.0182C2.57708 8.44625 2.50529 8.87968 2.45922 9.3162C2.45618 9.3505 2.45351 9.38483 2.45122 9.4192V9.4282C2.45022 9.4282 2.45022 9.4292 2.99922 9.4622ZM11.9992 1.5502C16.0182 1.5502 18.0872 3.5282 19.1822 5.4982C19.7372 6.4962 20.0432 7.5002 20.2112 8.2582C20.2953 8.6396 20.3571 9.02559 20.3962 9.4142C20.3985 9.43917 20.4005 9.46418 20.4022 9.4892V9.4912L20.9522 9.4612L21.5012 9.4322V9.4292L21.5002 9.4222C21.5002 9.4162 21.5002 9.4092 21.4982 9.3992C21.4901 9.27548 21.4778 9.15207 21.4612 9.0292C21.4312 8.7842 21.3772 8.4362 21.2852 8.0212C21.1022 7.1922 20.7652 6.0812 20.1432 4.9642C18.8882 2.7032 16.4812 0.450195 11.9992 0.450195V1.5502ZM20.9512 10.0122H21.9992V8.9122H20.9512V10.0122Z" fill="#6B6B6B"/>
<path d="M12.0008 25.4498C14.7346 25.4498 16.9508 23.2336 16.9508 20.4998C16.9508 17.766 14.7346 15.5498 12.0008 15.5498C9.26697 15.5498 7.05078 17.766 7.05078 20.4998C7.05078 23.2336 9.26697 25.4498 12.0008 25.4498Z" stroke="#6B6B6B" stroke-width="1.1"/>
</g>
<defs>
<clipPath id="clip0_340_844">
<rect width="24" height="40" fill="white"/>
</clipPath>
</defs>
</svg>
