<svg width="21" height="21" viewBox="0 0 21 21" fill="none" xmlns="http://www.w3.org/2000/svg">
<path d="M18.375 3.9375H13.7419C13.6958 3.15436 13.4221 2.4017 12.9544 1.77188C12.39 1.07625 11.55 0.65625 10.5 0.65625C9.45 0.65625 8.61 1.07625 8.04563 1.77188C7.57722 2.40133 7.30345 3.1542 7.25813 3.9375H2.625C2.45095 3.9375 2.28403 4.00664 2.16096 4.12971C2.03789 4.25278 1.96875 4.4197 1.96875 4.59375C1.96875 4.7678 2.03789 4.93472 2.16096 5.05779C2.28403 5.18086 2.45095 5.25 2.625 5.25H4.26562V18.375C4.26562 18.7425 4.55437 19.0312 4.92188 19.0312H16.0781C16.2522 19.0312 16.4191 18.9621 16.5422 18.839C16.6652 18.716 16.7344 18.549 16.7344 18.375V5.25H18.375C18.549 5.25 18.716 5.18086 18.839 5.05779C18.9621 4.93472 19.0312 4.7678 19.0312 4.59375C19.0312 4.4197 18.9621 4.25278 18.839 4.12971C18.716 4.00664 18.549 3.9375 18.375 3.9375ZM9.06938 2.59875C9.37125 2.21812 9.83063 1.96875 10.5 1.96875C11.1694 1.96875 11.6156 2.21812 11.9306 2.59875C12.1931 2.91375 12.3244 3.38625 12.4031 3.9375H8.59688C8.6625 3.38625 8.82 2.91375 9.06938 2.59875ZM15.4219 17.7188H5.57812V5.25H15.4219V17.7188Z" fill="#121212"/>
<path d="M8.59766 6.89062C8.42361 6.89062 8.25669 6.95977 8.13362 7.08284C8.01055 7.20591 7.94141 7.37283 7.94141 7.54688V15.4219C7.94141 15.5959 8.01055 15.7628 8.13362 15.8859C8.25669 16.009 8.42361 16.0781 8.59766 16.0781C8.7717 16.0781 8.93862 16.009 9.06169 15.8859C9.18477 15.7628 9.25391 15.5959 9.25391 15.4219V7.54688C9.25391 7.37283 9.18477 7.20591 9.06169 7.08284C8.93862 6.95977 8.7717 6.89062 8.59766 6.89062ZM12.4039 6.89062C12.2299 6.89062 12.0629 6.95977 11.9399 7.08284C11.8168 7.20591 11.7477 7.37283 11.7477 7.54688V15.4219C11.7477 15.5959 11.8168 15.7628 11.9399 15.8859C12.0629 16.009 12.2299 16.0781 12.4039 16.0781C12.578 16.0781 12.7449 16.009 12.8679 15.8859C12.991 15.7628 13.0602 15.5959 13.0602 15.4219V7.54688C13.0602 7.37283 12.991 7.20591 12.8679 7.08284C12.7449 6.95977 12.578 6.89062 12.4039 6.89062Z" fill="#121212"/>
</svg>
