<svg width="18" height="19" viewBox="0 0 18 19" fill="none" xmlns="http://www.w3.org/2000/svg">
<path d="M16.8754 12.4717C16.5379 12.4717 16.2285 12.7529 16.2285 13.1185V15.6217C16.2285 15.8748 16.0316 16.0717 15.7785 16.0717H2.22227C1.96914 16.0717 1.77227 15.8748 1.77227 15.6217V13.1185C1.77227 12.781 1.49102 12.4717 1.12539 12.4717C0.759766 12.4717 0.478516 12.7529 0.478516 13.1185V15.6217C0.478516 16.5779 1.23789 17.3373 2.19414 17.3373H15.7785C16.7348 17.3373 17.4941 16.5779 17.4941 15.6217V13.1185C17.5223 12.7529 17.2129 12.4717 16.8754 12.4717Z" fill="#64748B"/>
<path d="M8.55074 13.1471C8.66324 13.2596 8.83199 13.3158 9.00074 13.3158C9.16949 13.3158 9.31012 13.2596 9.45074 13.1471L13.4726 9.2377C13.7257 8.98458 13.7257 8.59083 13.5007 8.3377C13.2476 8.08458 12.8539 8.08458 12.6007 8.30958L9.64762 11.2065V2.90958C9.64762 2.57208 9.36637 2.2627 9.00074 2.2627C8.66324 2.2627 8.35387 2.54395 8.35387 2.90958V11.2065L5.40074 8.3377C5.14762 8.08458 4.75387 8.1127 4.50074 8.3377C4.24762 8.59083 4.27574 8.98458 4.50074 9.2377L8.55074 13.1471Z" fill="#64748B"/>
</svg>
