<svg width="20" height="21" viewBox="0 0 20 21" fill="none" xmlns="http://www.w3.org/2000/svg">
<path d="M17.414 3.03577C17.0389 2.66083 16.5303 2.4502 16 2.4502C15.4697 2.4502 14.9611 2.66083 14.586 3.03577L7 10.6218V13.4498H9.828L17.414 5.86377C17.7889 5.48871 17.9996 4.9801 17.9996 4.44977C17.9996 3.91944 17.7889 3.41082 17.414 3.03577Z" fill="white"/>
<path fill-rule="evenodd" clip-rule="evenodd" d="M2 6.4502C2 5.91976 2.21071 5.41105 2.58579 5.03598C2.96086 4.66091 3.46957 4.4502 4 4.4502H8C8.26522 4.4502 8.51957 4.55555 8.70711 4.74309C8.89464 4.93063 9 5.18498 9 5.4502C9 5.71541 8.89464 5.96977 8.70711 6.1573C8.51957 6.34484 8.26522 6.4502 8 6.4502H4V16.4502H14V12.4502C14 12.185 14.1054 11.9306 14.2929 11.7431C14.4804 11.5556 14.7348 11.4502 15 11.4502C15.2652 11.4502 15.5196 11.5556 15.7071 11.7431C15.8946 11.9306 16 12.185 16 12.4502V16.4502C16 16.9806 15.7893 17.4893 15.4142 17.8644C15.0391 18.2395 14.5304 18.4502 14 18.4502H4C3.46957 18.4502 2.96086 18.2395 2.58579 17.8644C2.21071 17.4893 2 16.9806 2 16.4502V6.4502Z" fill="white"/>
</svg>
