<svg width="33" height="32" viewBox="0 0 33 32" fill="none" xmlns="http://www.w3.org/2000/svg">
<path d="M16.89 11.2004C16.2535 11.2004 15.643 10.9475 15.1929 10.4974C14.7428 10.0474 14.49 9.43691 14.49 8.80039C14.49 8.16387 14.7428 7.55342 15.1929 7.10333C15.643 6.65325 16.2535 6.40039 16.89 6.40039C17.5265 6.40039 18.137 6.65325 18.587 7.10333C19.0371 7.55342 19.29 8.16387 19.29 8.80039C19.29 9.43691 19.0371 10.0474 18.587 10.4974C18.137 10.9475 17.5265 11.2004 16.89 11.2004ZM16.89 18.4004C16.2535 18.4004 15.643 18.1475 15.1929 17.6974C14.7428 17.2474 14.49 16.6369 14.49 16.0004C14.49 15.3639 14.7428 14.7534 15.1929 14.3033C15.643 13.8532 16.2535 13.6004 16.89 13.6004C17.5265 13.6004 18.137 13.8532 18.587 14.3033C19.0371 14.7534 19.29 15.3639 19.29 16.0004C19.29 16.6369 19.0371 17.2474 18.587 17.6974C18.137 18.1475 17.5265 18.4004 16.89 18.4004ZM16.89 25.6004C16.2535 25.6004 15.643 25.3475 15.1929 24.8974C14.7428 24.4474 14.49 23.8369 14.49 23.2004C14.49 22.5639 14.7428 21.9534 15.1929 21.5033C15.643 21.0532 16.2535 20.8004 16.89 20.8004C17.5265 20.8004 18.137 21.0532 18.587 21.5033C19.0371 21.9534 19.29 22.5639 19.29 23.2004C19.29 23.8369 19.0371 24.4474 18.587 24.8974C18.137 25.3475 17.5265 25.6004 16.89 25.6004Z" fill="#6B7280"/>
</svg>
