<svg width="23" height="23" viewBox="0 0 23 23" fill="none" xmlns="http://www.w3.org/2000/svg">
<g opacity="0.5">
<path d="M19.4516 3.80078H2.95154C1.78279 3.80078 0.785919 4.76328 0.785919 5.9664V17.1039C0.785919 18.2726 1.74842 19.2695 2.95154 19.2695H19.4516C20.6203 19.2695 21.6172 18.307 21.6172 17.1039V5.93203C21.6172 4.76328 20.6203 3.80078 19.4516 3.80078ZM19.4516 5.34765C19.4859 5.34765 19.5203 5.34765 19.5547 5.34765L11.2016 10.7101L2.84842 5.34765C2.88279 5.34765 2.91717 5.34765 2.95154 5.34765H19.4516ZM19.4516 17.6539H2.95154C2.60779 17.6539 2.33279 17.3789 2.33279 17.0351V6.86015L10.3766 12.0164C10.6172 12.1882 10.8922 12.257 11.1672 12.257C11.4422 12.257 11.7172 12.1882 11.9578 12.0164L20.0016 6.86015V17.0695C20.0703 17.4132 19.7953 17.6539 19.4516 17.6539Z" fill="#64748B"/>
</g>
</svg>
