<svg width="18" height="19" viewBox="0 0 18 19" fill="none" xmlns="http://www.w3.org/2000/svg">
<path d="M8.99981 15.6215C3.43106 15.6215 0.674805 10.3059 0.562305 10.0809C0.47793 9.91211 0.47793 9.68711 0.562305 9.51836C0.674805 9.29336 3.43106 4.00586 8.99981 4.00586C14.5686 4.00586 17.3248 9.29336 17.4373 9.51836C17.5217 9.68711 17.5217 9.91211 17.4373 10.0809C17.3248 10.3059 14.5686 15.6215 8.99981 15.6215ZM1.85605 9.79961C2.4748 10.8402 4.89356 14.3558 8.99981 14.3558C13.1061 14.3558 15.5248 10.8402 16.1436 9.79961C15.5248 8.75898 13.1061 5.24336 8.99981 5.24336C4.89356 5.24336 2.4748 8.75898 1.85605 9.79961Z" fill="#64748B"/>
<path d="M9 12.1904C7.67812 12.1904 6.60938 11.1217 6.60938 9.7998C6.60938 8.47793 7.67812 7.40918 9 7.40918C10.3219 7.40918 11.3906 8.47793 11.3906 9.7998C11.3906 11.1217 10.3219 12.1904 9 12.1904ZM9 8.6748C8.38125 8.6748 7.875 9.18105 7.875 9.7998C7.875 10.4186 8.38125 10.9248 9 10.9248C9.61875 10.9248 10.125 10.4186 10.125 9.7998C10.125 9.18105 9.61875 8.6748 9 8.6748Z" fill="#64748B"/>
</svg>
