<svg width="22" height="19" viewBox="0 0 22 19" fill="none" xmlns="http://www.w3.org/2000/svg">
<g clip-path="url(#clip0_462_1247)">
<path d="M19.8696 9.49916C19.8743 11.2047 19.4843 12.8871 18.7316 14.4086C18.61 14.6512 18.5815 14.9316 18.6516 15.1947C18.7217 15.4578 18.8853 15.6845 19.1104 15.8303C19.3477 15.9843 19.6349 16.0358 19.9091 15.9734C20.1834 15.911 20.4223 15.7398 20.5735 15.4973C20.5908 15.4696 20.6066 15.4413 20.6206 15.4124C21.5261 13.5833 21.998 11.5615 21.998 9.51081C21.998 7.46012 21.5261 5.43828 20.6206 3.60921C20.4913 3.35272 20.2677 3.15935 19.9991 3.07163C19.7306 2.9839 19.439 3.009 19.1884 3.14141L19.1072 3.18968C18.8825 3.3354 18.7191 3.56182 18.649 3.82453C18.5789 4.08724 18.6072 4.36728 18.7284 4.60973C19.479 6.12493 19.87 7.80012 19.8696 9.49916Z" fill="white"/>
<path d="M16.4294 9.49918C16.4318 10.5564 16.2099 11.6016 15.7791 12.5624C15.6711 12.8027 15.6522 13.075 15.7257 13.3286C15.7993 13.5822 15.9604 13.7998 16.179 13.9408C16.3077 14.0243 16.4524 14.0786 16.6033 14.1C16.7542 14.1215 16.9078 14.1095 17.0539 14.065C17.1999 14.0206 17.3349 13.9446 17.4498 13.8421C17.5648 13.7397 17.6569 13.6133 17.7201 13.4713C18.2756 12.2255 18.563 10.872 18.563 9.50251C18.563 8.13301 18.2756 6.7795 17.7201 5.5337C17.6568 5.39246 17.5648 5.26668 17.4503 5.16476C17.3357 5.06284 17.2012 4.98713 17.0558 4.94269C16.9104 4.89826 16.7574 4.88611 16.607 4.90707C16.4567 4.92803 16.3124 4.98161 16.1839 5.06424C15.9653 5.20522 15.8042 5.42278 15.7306 5.67638C15.657 5.92998 15.676 6.20232 15.784 6.44267C16.2122 7.4018 16.4324 8.44457 16.4294 9.49918Z" fill="white"/>
<path d="M9.2766 16.8225C8.13931 16.8223 7.01846 16.5443 6.00706 16.0117C4.99566 15.4791 4.12285 14.7072 3.46105 13.76C2.79925 12.8128 2.36754 11.7177 2.20172 10.5655C2.03591 9.41329 2.14077 8.2372 2.50761 7.1348C2.87446 6.03239 3.49271 5.03546 4.31107 4.2267C5.12944 3.41794 6.12432 2.82066 7.21319 2.48443C8.30206 2.14821 9.45353 2.08272 10.5721 2.29339C11.6906 2.50407 12.7439 2.98484 13.6447 3.69582C13.849 3.85846 14.1042 3.93923 14.3625 3.92298C14.6208 3.90674 14.8644 3.7946 15.0477 3.60758C15.1544 3.49832 15.2372 3.367 15.2904 3.22238C15.3437 3.07777 15.3662 2.92319 15.3565 2.76895C15.3468 2.61471 15.3051 2.46437 15.2342 2.32794C15.1633 2.19151 15.0648 2.07213 14.9453 1.97777C13.5718 0.892136 11.9287 0.222558 10.2024 0.0450472C8.47611 -0.132463 6.73579 0.189209 5.17902 0.973544C3.62224 1.75788 2.31138 2.97346 1.39523 4.48228C0.47909 5.99111 -0.00563086 7.73275 -0.00390164 9.50947C-0.00217242 11.2862 0.485938 13.0268 1.40502 14.5338C2.32409 16.0407 3.63732 17.2536 5.19562 18.0348C6.75392 18.816 8.49486 19.1341 10.2208 18.953C11.9468 18.772 13.5886 18.0991 14.9599 17.0106C15.077 16.9174 15.1734 16.7998 15.2428 16.6656C15.3121 16.5313 15.3529 16.3835 15.3622 16.2319C15.3716 16.0804 15.3494 15.9285 15.2972 15.7863C15.2449 15.6442 15.1637 15.5151 15.0591 15.4075L15.0363 15.3842C14.855 15.2015 14.6151 15.0925 14.3612 15.0774C14.1073 15.0624 13.8567 15.1425 13.6561 15.3026C12.4019 16.2938 10.8609 16.8287 9.2766 16.8225Z" fill="white"/>
<path d="M14.9801 8.70174C14.7754 8.49013 14.4971 8.37038 14.2063 8.36879H9.10984C8.96186 8.36296 8.81426 8.38778 8.67587 8.44175C8.53747 8.49572 8.41114 8.57774 8.30443 8.6829C8.19772 8.78805 8.11284 8.91418 8.05485 9.05372C7.99687 9.19326 7.96698 9.34335 7.96698 9.495C7.96698 9.64666 7.99687 9.79675 8.05485 9.93629C8.11284 10.0758 8.19772 10.202 8.30443 10.3071C8.41114 10.4123 8.53747 10.4943 8.67587 10.5483C8.81426 10.6022 8.96186 10.627 9.10984 10.6212H12.9448C12.7126 11.4048 12.2463 12.094 11.6116 12.5921C10.977 13.0901 10.2058 13.3719 9.4066 13.3977C8.60741 13.4235 7.82043 13.1921 7.15635 12.736C6.49228 12.2799 5.98453 11.6222 5.70455 10.8552C5.42456 10.0882 5.38642 9.25061 5.59549 8.46027C5.80457 7.66993 6.25033 6.9666 6.87007 6.44922C7.48982 5.93184 8.25236 5.62644 9.05043 5.57599C9.8485 5.52554 10.6419 5.73257 11.3191 6.16797C11.5315 6.30283 11.7822 6.35981 12.0303 6.32957C12.2785 6.29932 12.5092 6.18364 12.6847 6.00149C12.8004 5.88262 12.8886 5.7387 12.9429 5.58032C12.9972 5.42194 13.0162 5.25311 12.9984 5.08624C12.9806 4.91938 12.9266 4.75871 12.8402 4.61604C12.7538 4.47337 12.6374 4.35233 12.4993 4.26181C11.1546 3.39626 9.53223 3.10462 7.98001 3.4494C6.84677 3.69537 5.80846 4.27521 4.99281 5.11758C4.17716 5.95996 3.61976 7.02812 3.38916 8.19066C3.21246 9.03675 3.21142 9.91143 3.38611 10.758C3.56079 11.6045 3.9073 12.404 4.40316 13.1045C4.89901 13.805 5.53314 14.391 6.2644 14.8244C6.99567 15.2578 7.80773 15.5289 8.64791 15.6202C9.48809 15.7115 10.3376 15.6208 11.1414 15.3542C11.9452 15.0876 12.6852 14.6509 13.3136 14.0725C13.9419 13.494 14.4445 12.7868 14.7887 11.9967C15.133 11.2065 15.3111 10.3511 15.3117 9.48585C15.3058 9.19007 15.1867 8.90851 14.9801 8.70174Z" fill="white"/>
</g>
<defs>
<clipPath id="clip0_462_1247">
<rect width="22" height="19" fill="white"/>
</clipPath>
</defs>
</svg>
