<svg width="482" height="482" viewBox="0 0 482 482" fill="none" xmlns="http://www.w3.org/2000/svg">
<path d="M107.111 297.634L106.221 276.801C94.5189 241.307 89.719 194.727 98.0937 168.552C104.534 148.429 130.655 104.393 163.164 89.156C221.887 61.2268 272.752 78.3713 300.333 86.6255C332.935 99.6931 359.94 118.833 377.386 160.666C385.687 180.562 391.94 217.569 389.101 253.92C387.106 279.626 377.935 304.771 372.151 324.881C365.148 349.188 336.403 375.036 316.888 390.694L320.169 391.517L309.31 404.819L107.111 297.634Z" fill="#3F3F3F" stroke="#3F3F3F" stroke-width="2" stroke-linecap="round" stroke-linejoin="round"/>
<path d="M107.111 297.636L106.221 276.803L109.3 280.096L316.895 390.689L320.175 391.505L309.317 404.814L107.111 297.636Z" fill="#3F3F3F" stroke="#3F3F3F" stroke-width="2" stroke-linecap="round" stroke-linejoin="round"/>
<path d="M320.209 391.537C319.065 391.534 317.939 391.251 316.928 390.714L109.287 280.122C107.924 279.397 106.841 278.241 106.207 276.835C103.369 270.522 79.1083 213.679 100.691 160.217C112.855 130.112 131.539 107.378 156.195 92.6235C177.416 79.9509 202.326 73.5176 230.269 73.5176C255.554 73.5176 282.807 79.1208 306.967 89.2964C329.561 98.8025 348.024 111.743 357.617 124.777C373.195 145.931 383.324 170.989 387.722 199.246C391.538 223.748 390.869 250.76 385.781 277.31C376.087 327.953 351.217 373.442 323.897 390.453C322.791 391.15 321.51 391.521 320.202 391.524L320.209 391.537Z" fill="#017242"/>
<path d="M385.125 185.536C366.098 182.716 347.142 179.432 328.275 175.689C284.989 167.066 250.017 157.379 227.109 147.639C224.98 146.735 204.281 143.488 202.333 144.754C190.102 147.083 180.02 158.571 180.02 178.199C180.02 179.866 180 219.236 189.941 239.634C193.436 246.824 207.816 258.071 287.901 287.031C316.755 297.39 345.791 307.233 374.996 316.553C379.659 303.779 383.29 290.652 385.854 277.297C390.942 250.72 391.612 223.721 387.796 199.226C387.078 194.635 386.196 190.071 385.151 185.543L385.125 185.536Z" fill="#3F3F3F"/>
<path d="M373.282 183.695L375.799 199.186L378.209 228.106L377.888 244.474L375.906 264.886L371.301 289.079L366.092 313.045" stroke="#9B9B9A" stroke-width="2" stroke-linecap="round" stroke-linejoin="round"/>
<path d="M206.457 197.331C221.087 197.331 232.947 185.471 232.947 170.841C232.947 156.212 221.087 144.352 206.457 144.352C191.827 144.352 179.967 156.212 179.967 170.841C179.967 185.471 191.827 197.331 206.457 197.331Z" fill="black" stroke="black" stroke-width="2"/>
<path d="M107.111 297.634L309.35 404.812M320.209 391.537C319.065 391.534 317.939 391.251 316.928 390.714L109.287 280.122C107.924 279.397 106.841 278.241 106.207 276.835C103.369 270.522 79.1083 213.679 100.691 160.217C109.548 138.3 121.859 120.285 137.424 106.414C143.231 101.235 149.516 96.6171 156.195 92.6235C177.416 79.9509 202.326 73.5176 230.269 73.5176C255.554 73.5176 282.807 79.1208 306.967 89.2964C329.561 98.8025 348.024 111.743 357.617 124.777C373.195 145.931 383.324 170.989 387.722 199.246C391.538 223.748 390.869 250.76 385.781 277.31C376.087 327.953 351.217 373.442 323.897 390.453C322.791 391.15 321.51 391.521 320.202 391.524L320.209 391.537Z" stroke="black" stroke-width="2" stroke-linecap="round" stroke-linejoin="round"/>
<path d="M385.125 185.536C366.098 182.716 347.142 179.432 328.275 175.689C284.989 167.066 250.017 157.379 227.109 147.639C224.98 146.735 204.281 143.488 202.333 144.754C190.102 147.083 180.02 158.571 180.02 178.199C180.02 179.866 180 219.236 189.941 239.634C193.436 246.824 207.816 258.071 287.901 287.031C316.755 297.39 345.791 307.233 374.996 316.553C379.659 303.779 383.29 290.652 385.854 277.297C390.942 250.72 391.612 223.721 387.796 199.226C387.078 194.635 386.196 190.071 385.151 185.543L385.125 185.536Z" stroke="black" stroke-width="2"/>
</svg>
