<svg width="22" height="26" viewBox="0 0 22 26" fill="none" xmlns="http://www.w3.org/2000/svg">
<path d="M11.0049 7.38452C7.8987 7.38452 5.39325 9.8894 5.39325 12.9949C5.39325 16.1003 7.8987 18.6052 11.0049 18.6052C14.1111 18.6052 16.6165 16.1003 16.6165 12.9949C16.6165 9.8894 14.1111 7.38452 11.0049 7.38452ZM11.0049 16.6423C8.99759 16.6423 7.35659 15.0066 7.35659 12.9949C7.35659 10.9832 8.9927 9.34741 11.0049 9.34741C13.0171 9.34741 14.6532 10.9832 14.6532 12.9949C14.6532 15.0066 13.0122 16.6423 11.0049 16.6423ZM18.155 7.15503C18.155 7.88257 17.5689 8.46362 16.8461 8.46362C16.1184 8.46362 15.5372 7.87769 15.5372 7.15503C15.5372 6.43237 16.1232 5.84644 16.8461 5.84644C17.5689 5.84644 18.155 6.43237 18.155 7.15503ZM21.8716 8.48315C21.7886 6.73022 21.3881 5.17749 20.1036 3.89819C18.8241 2.6189 17.271 2.21851 15.5176 2.13062C13.7106 2.02808 8.2943 2.02808 6.48725 2.13062C4.7388 2.21362 3.18571 2.61401 1.90124 3.89331C0.616766 5.17261 0.221168 6.72534 0.133257 8.47827C0.0306948 10.2849 0.0306948 15.7 0.133257 17.5066C0.216284 19.2595 0.616766 20.8123 1.90124 22.0916C3.18571 23.3708 4.73392 23.7712 6.48725 23.8591C8.2943 23.9617 13.7106 23.9617 15.5176 23.8591C17.271 23.7761 18.8241 23.3757 20.1036 22.0916C21.3832 20.8123 21.7837 19.2595 21.8716 17.5066C21.9742 15.7 21.9742 10.2898 21.8716 8.48315ZM19.5371 19.4451C19.1562 20.4021 18.4187 21.1394 17.4566 21.5251C16.0158 22.0964 12.597 21.9646 11.0049 21.9646C9.41272 21.9646 5.98909 22.0916 4.55321 21.5251C3.59596 21.1443 2.85849 20.407 2.47266 19.4451C1.90124 18.0046 2.03311 14.5867 2.03311 12.9949C2.03311 11.4031 1.90612 7.98022 2.47266 6.54468C2.85361 5.58765 3.59108 4.85034 4.55321 4.4646C5.99397 3.89331 9.41272 4.02515 11.0049 4.02515C12.597 4.02515 16.0207 3.89819 17.4566 4.4646C18.4138 4.84546 19.1513 5.58276 19.5371 6.54468C20.1085 7.98511 19.9767 11.4031 19.9767 12.9949C19.9767 14.5867 20.1085 18.0095 19.5371 19.4451Z" fill="white"/>
</svg>
