<svg width="46" height="46" viewBox="0 0 46 46" fill="none" xmlns="http://www.w3.org/2000/svg">
<rect width="46" height="46" rx="5" fill="#067741"/>
<path d="M20.0008 10.5333V9.4C20.0008 8.49826 20.3168 7.63346 20.8793 6.99584C21.4417 6.35821 22.2046 6 23 6H26.9989C27.264 6 27.5183 6.1194 27.7058 6.33195C27.8933 6.54449 27.9986 6.83275 27.9986 7.13333C27.9986 7.43391 27.8933 7.72218 27.7058 7.93472C27.5183 8.14726 27.264 8.26667 26.9989 8.26667H23C22.7349 8.26667 22.4806 8.38607 22.2931 8.59861C22.1056 8.81115 22.0003 9.09942 22.0003 9.4V10.5333H31.9975C32.7618 10.5324 33.4975 10.8622 34.0545 11.4555C34.6115 12.0488 34.9477 12.8607 34.9944 13.7256C35.0411 14.5904 34.7948 15.4428 34.3058 16.1086C33.8168 16.7745 33.122 17.2037 32.3634 17.3084L31.1237 37.8875C31.0893 38.4603 30.8643 38.9971 30.4943 39.3892C30.1243 39.7813 29.6368 39.9996 29.1303 40H16.8697C16.3629 40.0002 15.8749 39.7821 15.5044 39.39C15.134 38.9978 14.9087 38.4607 14.8743 37.8875L13.6366 17.3084C12.878 17.2037 12.1832 16.7745 11.6942 16.1086C11.2052 15.4428 10.9589 14.5904 11.0056 13.7256C11.0523 12.8607 11.3885 12.0488 11.9455 11.4555C12.5025 10.8622 13.2382 10.5324 14.0025 10.5333H20.0008ZM15.6421 17.3333L16.8697 37.7333H29.1303L29.2802 35.2264C27.6924 34.769 26.2964 33.6947 25.3353 32.1906C24.3742 30.6865 23.9089 28.8479 24.0205 26.9949C24.132 25.142 24.8133 23.3921 25.9458 22.0499C27.0782 20.7078 28.59 19.8585 30.218 19.6499L30.3579 17.3333H15.6421ZM14.0025 15.0667H31.9975C32.2626 15.0667 32.5169 14.9473 32.7044 14.7347C32.8919 14.5222 32.9972 14.2339 32.9972 13.9333C32.9972 13.6328 32.8919 13.3445 32.7044 13.1319C32.5169 12.9194 32.2626 12.8 31.9975 12.8H14.0025C13.7374 12.8 13.4831 12.9194 13.2956 13.1319C13.1081 13.3445 13.0028 13.6328 13.0028 13.9333C13.0028 14.2339 13.1081 14.5222 13.2956 14.7347C13.4831 14.9473 13.7374 15.0667 14.0025 15.0667ZM29.4182 32.9121L30.078 21.9641C28.9886 22.1945 27.9976 22.8288 27.2609 23.7672C26.5241 24.7057 26.0833 25.8951 26.0078 27.1484C25.9322 28.4018 26.2262 29.6481 26.8436 30.6914C27.4609 31.7347 28.3666 32.5159 29.4182 32.9121Z" fill="#F0F2F5"/>
</svg>
