<svg width="20" height="20" viewBox="0 0 20 20" fill="none" xmlns="http://www.w3.org/2000/svg">
<path d="M12.52 0C13.549 0 14.535 0.409 15.262 1.136L18.864 4.738C19.224 5.09801 19.5096 5.52542 19.7045 5.99581C19.8993 6.46619 19.9996 6.97035 19.9996 7.4795C19.9996 7.98865 19.8993 8.49281 19.7045 8.96319C19.5096 9.43358 19.224 9.86099 18.864 10.221L16.221 12.864C15.5799 13.5045 14.7347 13.9004 13.8322 13.983C12.9297 14.0656 12.0267 13.8296 11.28 13.316L11.175 13.238L5.293 19.121C4.83776 19.5747 4.24884 19.8702 3.613 19.964L3.393 19.991L3.172 20H2C0.986 20 0.133 19.241 0.00900006 18.177L0 18V16.828C0 16.124 0.248 15.442 0.73 14.868L0.879 14.707L1.293 14.293C1.48049 14.1054 1.73481 14.0001 2 14H3V13C3.00003 12.7551 3.08996 12.5187 3.25272 12.3356C3.41547 12.1526 3.63975 12.0357 3.883 12.007L4 12H5V11C4.99998 10.7802 5.07238 10.5665 5.206 10.392L5.293 10.292L6.761 8.823L6.685 8.72C6.28573 8.13897 6.05142 7.46059 6.007 6.757L6 6.521C6 5.492 6.409 4.506 7.136 3.779L9.779 1.136C10.5061 0.409145 11.4919 0.000569462 12.52 0ZM13.015 5H12.995C12.4646 5 11.9559 5.21071 11.5808 5.58579C11.2057 5.96086 10.995 6.46957 10.995 7C10.995 7.53043 11.2057 8.03914 11.5808 8.41421C11.9559 8.78929 12.4646 9 12.995 9H13.015C13.5454 9 14.0541 8.78929 14.4292 8.41421C14.8043 8.03914 15.015 7.53043 15.015 7C15.015 6.46957 14.8043 5.96086 14.4292 5.58579C14.0541 5.21071 13.5454 5 13.015 5Z" fill="black"/>
</svg>
