<svg width="33" height="32" viewBox="0 0 33 32" fill="none" xmlns="http://www.w3.org/2000/svg">
<path fill-rule="evenodd" clip-rule="evenodd" d="M26.49 16.0004C26.49 18.5465 25.4786 20.9883 23.6783 22.7886C21.8779 24.589 19.4361 25.6004 16.89 25.6004C14.344 25.6004 11.9022 24.589 10.1018 22.7886C8.30146 20.9883 7.29004 18.5465 7.29004 16.0004C7.29004 13.4543 8.30146 11.0125 10.1018 9.21217C11.9022 7.41182 14.344 6.40039 16.89 6.40039C19.4361 6.40039 21.8779 7.41182 23.6783 9.21217C25.4786 11.0125 26.49 13.4543 26.49 16.0004ZM18.09 20.8004C18.09 21.1187 17.9636 21.4239 17.7386 21.6489C17.5135 21.874 17.2083 22.0004 16.89 22.0004C16.5718 22.0004 16.2666 21.874 16.0415 21.6489C15.8165 21.4239 15.69 21.1187 15.69 20.8004C15.69 20.4821 15.8165 20.1769 16.0415 19.9519C16.2666 19.7268 16.5718 19.6004 16.89 19.6004C17.2083 19.6004 17.5135 19.7268 17.7386 19.9519C17.9636 20.1769 18.09 20.4821 18.09 20.8004ZM16.89 10.0004C16.5718 10.0004 16.2666 10.1268 16.0415 10.3519C15.8165 10.5769 15.69 10.8821 15.69 11.2004V16.0004C15.69 16.3187 15.8165 16.6239 16.0415 16.8489C16.2666 17.074 16.5718 17.2004 16.89 17.2004C17.2083 17.2004 17.5135 17.074 17.7386 16.8489C17.9636 16.6239 18.09 16.3187 18.09 16.0004V11.2004C18.09 10.8821 17.9636 10.5769 17.7386 10.3519C17.5135 10.1268 17.2083 10.0004 16.89 10.0004Z" fill="#6B7280"/>
</svg>
