<svg width="14" height="14" viewBox="0 0 14 14" fill="none" xmlns="http://www.w3.org/2000/svg">
<path d="M11.6666 5.83268C11.6666 9.33268 6.99998 12.8327 6.99998 12.8327C6.99998 12.8327 2.33331 9.33268 2.33331 5.83268C2.33331 4.59501 2.82498 3.40802 3.70015 2.53285C4.57532 1.65768 5.7623 1.16602 6.99998 1.16602C8.23766 1.16602 9.42464 1.65768 10.2998 2.53285C11.175 3.40802 11.6666 4.59501 11.6666 5.83268Z" stroke="#6B7280" stroke-width="1.16667" stroke-linecap="round" stroke-linejoin="round"/>
<path d="M7 7.58398C7.9665 7.58398 8.75 6.80048 8.75 5.83398C8.75 4.86749 7.9665 4.08398 7 4.08398C6.0335 4.08398 5.25 4.86749 5.25 5.83398C5.25 6.80048 6.0335 7.58398 7 7.58398Z" stroke="#6B7280" stroke-width="1.16667" stroke-linecap="round" stroke-linejoin="round"/>
</svg>
