<svg width="23" height="23" viewBox="0 0 23 23" fill="none" xmlns="http://www.w3.org/2000/svg">
<g opacity="0.5">
<path d="M16.3547 6.90672V6.01297C16.3547 3.26297 14.2922 0.925473 11.6797 0.719223C10.2359 0.581723 8.79217 1.09735 7.72654 2.05984C6.66092 3.02234 6.04217 4.39734 6.04217 5.80672V6.90672C4.04842 7.28484 2.53592 9.03797 2.53592 11.1693V17.3911C2.53592 19.6599 4.39217 21.4818 6.62654 21.4818H15.7016C17.9703 21.4818 19.8266 19.6255 19.8266 17.3568V11.1005C19.8609 9.03797 18.3484 7.31922 16.3547 6.90672ZM8.75779 3.19422C9.51404 2.50672 10.5109 2.16297 11.5422 2.26609C13.3641 2.43797 14.8078 4.08797 14.8078 6.01297V6.80359H7.58904V5.77234C7.58904 4.80984 8.00154 3.88172 8.75779 3.19422ZM18.3141 17.3911C18.3141 18.8005 17.1453 19.9693 15.7359 19.9693H6.66092C5.25154 19.9693 4.11717 18.8349 4.11717 17.4255V11.1693C4.11717 9.62235 5.35467 8.38484 6.90154 8.38484H15.4953C17.0422 8.38484 18.3141 9.62234 18.3141 11.1005V17.3911Z" fill="#64748B"/>
<path d="M11.1977 11.959C10.7852 11.959 10.407 12.3027 10.407 12.7496V16.359C10.407 16.7715 10.7508 17.1496 11.1977 17.1496C11.6102 17.1496 11.9883 16.8059 11.9883 16.359V12.7152C11.9883 12.3027 11.6102 11.959 11.1977 11.959Z" fill="#64748B"/>
</g>
</svg>
