<svg width="46" height="46" viewBox="0 0 46 46" fill="none" xmlns="http://www.w3.org/2000/svg">
<rect width="46" height="46" rx="5" fill="#067741"/>
<path d="M8.61464 28.6771L29.9804 40M31.1276 38.5975C31.0067 38.5972 30.8877 38.5673 30.781 38.5105L8.8445 26.8269C8.70057 26.7504 8.58614 26.6283 8.51916 26.4797C8.21929 25.8127 5.65625 19.8075 7.9364 14.1595C8.87208 11.844 10.1727 9.94079 11.817 8.47539C12.4306 7.9282 13.0946 7.44038 13.8001 7.01847C16.0421 5.67966 18.6737 5 21.6258 5C24.297 5 27.1762 5.59196 29.7286 6.66697C32.1156 7.67125 34.0662 9.03835 35.0796 10.4154C36.7254 12.6502 37.7955 15.2974 38.2601 18.2827C38.6632 20.8712 38.5925 23.7249 38.055 26.5299C37.0309 31.8802 34.4035 36.6859 31.5173 38.483C31.4003 38.5566 31.265 38.5958 31.1269 38.5961L31.1276 38.5975Z" stroke="white" stroke-width="2" stroke-linecap="round" stroke-linejoin="round"/>
<path d="M37.9857 16.8351C35.9756 16.5371 33.9731 16.1903 31.9798 15.7948C27.4068 14.8839 23.7122 13.8605 21.292 12.8314C21.0671 12.736 18.8803 12.3929 18.6745 12.5266C17.3824 12.7727 16.3173 13.9864 16.3173 16.06C16.3173 16.2361 16.3151 20.3954 17.3654 22.5504C17.7346 23.3099 19.2537 24.4981 27.7145 27.5576C30.7627 28.6521 33.8303 29.6919 36.9157 30.6766C37.4083 29.327 37.7919 27.9402 38.0628 26.5293C38.6003 23.7215 38.6711 20.8692 38.2679 18.2814C38.1921 17.7964 38.099 17.3142 37.9886 16.8358L37.9857 16.8351Z" stroke="white" stroke-width="2"/>
</svg>
