<svg width="40" height="40" viewBox="0 0 40 40" fill="none" xmlns="http://www.w3.org/2000/svg">
<g clip-path="url(#clip0_207_4313)">
<g clip-path="url(#clip1_207_4313)">
<path d="M16.971 27.2507C16.8607 27.244 16.7458 27.2575 16.6308 27.2891C16.4959 27.3263 16.3657 27.4232 16.2319 27.5856C16.0771 27.7705 15.9891 28.0659 15.9621 28.4876L15.9574 28.553C15.9563 28.5744 15.9574 28.5959 15.9645 28.615L15.9539 28.6951C15.9539 28.6951 15.9539 28.703 15.9527 28.7075C15.9422 28.8777 15.9645 29.0728 16.0219 29.2994C16.063 29.4776 16.1827 29.6524 16.3856 29.8328C16.5991 30.0199 16.91 30.127 17.3112 30.1507C18.543 30.224 18.8445 29.5734 18.8809 29.0153C18.8809 29.013 18.8809 29.0097 18.8809 29.0074L18.8879 28.6015V28.579C18.9079 28.2926 18.8222 28.0411 18.6345 27.8314C18.3295 27.4898 17.7852 27.2992 16.9698 27.2507H16.971Z" fill="black"/>
<path d="M24.4095 27.5652C24.2992 27.5584 24.1842 27.5719 24.0693 27.6035C23.9344 27.6407 23.8042 27.7377 23.6704 27.9001C23.5156 28.085 23.4276 28.3804 23.4006 28.8021L23.3959 28.8675C23.3947 28.8889 23.3959 28.9103 23.4029 28.9295L23.3924 29.0095C23.3924 29.0095 23.3924 29.0174 23.3912 29.0219C23.3806 29.1922 23.4029 29.3873 23.4604 29.6139C23.5015 29.792 23.6211 29.9668 23.8241 30.1472C24.0376 30.3344 24.3485 30.4415 24.7497 30.4652C25.9815 30.5385 26.283 29.8879 26.3194 29.3298C26.3194 29.3275 26.3194 29.3241 26.3194 29.3219L26.3264 28.916V28.8934C26.3463 28.607 26.2607 28.3556 26.073 28.1459C25.768 27.8042 25.2236 27.6137 24.4083 27.5652H24.4095Z" fill="black"/>
<path d="M16.2025 30.8709C16.1438 30.7807 16.0664 30.6984 15.9726 30.6273C15.8623 30.5439 15.7039 30.4977 15.4904 30.4875C15.2441 30.474 14.9426 30.5766 14.5695 30.7998L14.512 30.8348C14.4932 30.8461 14.4768 30.8607 14.4627 30.8765L14.3877 30.9148C14.3877 30.9148 14.3806 30.9194 14.3759 30.9216C14.2246 31.0118 14.0733 31.1437 13.9149 31.3196C13.7882 31.4561 13.7096 31.65 13.6744 31.9138C13.6392 32.1889 13.7295 32.4956 13.943 32.8237C14.5953 33.8306 15.3227 33.6886 15.8165 33.392C15.8189 33.3909 15.8212 33.3886 15.8236 33.3875L16.172 33.1575L16.1919 33.1462C16.4453 32.994 16.6084 32.7809 16.6776 32.5125C16.7902 32.0751 16.6354 31.5384 16.2025 30.872V30.8709Z" fill="black"/>
<path d="M22.3285 29.1892C22.2698 29.099 22.1924 29.0167 22.0985 28.9457C21.9883 28.8622 21.8299 28.816 21.6164 28.8059C21.37 28.7923 21.0685 28.8949 20.6955 29.1182L20.638 29.1531C20.6192 29.1644 20.6028 29.1791 20.5887 29.1949L20.5136 29.2332C20.5136 29.2332 20.5066 29.2377 20.5019 29.24C20.3506 29.3302 20.1992 29.4621 20.0409 29.638C19.9142 29.7744 19.8356 29.9683 19.8004 30.2322C19.7652 30.5073 19.8555 30.814 20.069 31.1421C20.7213 32.149 21.4486 32.0069 21.9425 31.7104C21.9449 31.7092 21.9472 31.707 21.9496 31.7059L22.298 31.4758L22.3179 31.4646C22.5713 31.3124 22.7344 31.0993 22.8036 30.8309C22.9162 30.3934 22.7614 29.8567 22.3285 29.1904V29.1892Z" fill="black"/>
<path d="M21.0761 33.7072C21.1113 33.6057 21.1277 33.4964 21.1253 33.3814C21.123 33.2461 21.0585 33.0995 20.9318 32.9349C20.7851 32.7432 20.5118 32.5853 20.0953 32.45L20.0308 32.4297C20.0097 32.423 19.9874 32.4196 19.9663 32.4196L19.8877 32.3891C19.8877 32.3891 19.8795 32.3858 19.8759 32.3846C19.707 32.3305 19.5052 32.3012 19.2624 32.2956C19.0723 32.2877 18.8659 32.3531 18.6324 32.4951C18.3896 32.6451 18.2007 32.9056 18.0728 33.272C17.6798 34.3961 18.2558 34.8449 18.8072 35.023C18.8096 35.023 18.8131 35.0253 18.8154 35.0253L19.2213 35.1369L19.2436 35.1437C19.5264 35.235 19.802 35.2204 20.0613 35.1008C20.4848 34.9058 20.8168 34.4503 21.0761 33.7061V33.7072Z" fill="black"/>
<path d="M17.4657 36.2307C17.5009 36.1292 17.5173 36.0198 17.515 35.9048C17.5126 35.7695 17.4481 35.6229 17.3214 35.4583C17.1748 35.2666 16.9014 35.1088 16.485 34.9735L16.4204 34.9532C16.3993 34.9464 16.377 34.943 16.3559 34.943L16.2773 34.9126C16.2773 34.9126 16.2691 34.9092 16.2656 34.9081C16.0967 34.8539 15.8949 34.8246 15.652 34.819C15.462 34.8111 15.2555 34.8765 15.0221 35.0186C14.7792 35.1685 14.5904 35.429 14.4625 35.7954C14.0695 36.9196 14.6455 37.3683 15.1969 37.5465C15.1992 37.5465 15.2027 37.5487 15.2051 37.5487L15.611 37.6604L15.6333 37.6671C15.916 37.7585 16.1917 37.7438 16.451 37.6243C16.8745 37.4292 17.2064 36.9737 17.4657 36.2295V36.2307Z" fill="black"/>
<path d="M23.0692 34.8773C22.9882 34.804 22.8909 34.7442 22.7818 34.698C22.6527 34.6439 22.4873 34.6393 22.2785 34.6822C22.0368 34.7307 21.7729 34.9032 21.4726 35.2121L21.4256 35.2595C21.4104 35.2753 21.3986 35.2933 21.3893 35.3113L21.3271 35.3666C21.3271 35.3666 21.3212 35.3722 21.3177 35.3756C21.1957 35.5008 21.0842 35.6643 20.9787 35.8751C20.8919 36.0386 20.8684 36.2449 20.9059 36.5088C20.9458 36.7839 21.1159 37.0568 21.4092 37.3206C22.309 38.1313 22.973 37.8156 23.3719 37.4063C23.3742 37.404 23.3754 37.4018 23.3777 37.3995L23.6522 37.0917L23.6687 37.0759C23.8728 36.8662 23.9737 36.6204 23.9678 36.3442C23.9596 35.8932 23.6663 35.414 23.0704 34.8761L23.0692 34.8773Z" fill="black"/>
<path d="M26.219 32.5603C26.1991 32.4554 26.1592 32.3517 26.0982 32.2525C26.0278 32.1352 25.8988 32.0371 25.704 31.9514C25.4799 31.8511 25.1609 31.8398 24.728 31.9153L24.6611 31.9266C24.6388 31.93 24.6189 31.9379 24.6001 31.948L24.5156 31.957C24.5156 31.957 24.5074 31.957 24.5027 31.9593C24.3279 31.9897 24.1367 32.0585 23.9209 32.1656C23.7507 32.2468 23.6029 32.4002 23.4692 32.6336C23.3319 32.8771 23.2979 33.1939 23.3695 33.5739C23.59 34.7409 24.3197 34.8661 24.8934 34.7657C24.8957 34.7657 24.8992 34.7657 24.9016 34.7635L25.3134 34.6733L25.3357 34.6687C25.6301 34.6169 25.8636 34.4771 26.0301 34.2516C26.3023 33.8851 26.3645 33.3315 26.2178 32.5591L26.219 32.5603Z" fill="black"/>
<path d="M31.9847 6.61395C31.9777 6.49669 31.8663 6.41438 31.7466 6.43467C31.1812 6.53051 30.5559 6.48203 30.042 6.51811C28.2507 6.64214 26.4581 6.72106 24.6667 6.76391C23.4514 6.79322 22.236 6.78871 21.0206 6.7718C20.9268 6.77067 20.8458 6.70641 20.8259 6.61846C20.6792 5.97464 20.5232 5.33421 20.3496 4.69603C20.0399 3.55384 19.7173 2.41391 19.4275 1.26722C19.417 1.22663 19.4076 1.18716 19.3982 1.14883C19.3724 1.04622 19.2656 0.981952 19.1577 1.00451L17.0519 1.44424C16.944 1.46679 16.8748 1.56827 16.8959 1.67313C17.2302 3.27196 17.5599 4.87305 17.8977 6.47301C17.9236 6.59591 17.825 6.70866 17.6948 6.7064C15.8002 6.66469 13.9056 6.63086 12.0086 6.67483C10.7815 6.70415 9.55323 6.74023 8.32613 6.75602C8.2839 6.75602 8.24167 6.75602 8.20178 6.75714C8.0915 6.75827 8.00235 6.84509 8.00117 6.95108L8 8.15528C8 8.26239 8.08916 8.34921 8.20061 8.35034C8.58422 8.35485 8.96784 8.35936 9.35028 8.365C9.4324 9.05391 9.45586 9.79019 9.51569 10.4047C9.75266 12.839 9.95914 15.2779 10.141 17.719C10.5692 23.4671 10.7311 29.2332 11.1593 34.9814L11.4443 38.8296C11.4678 39.1498 11.4913 39.4701 11.5147 39.7903C11.5218 39.8918 11.6097 39.9707 11.7153 39.9718C12.0168 39.9741 12.3195 39.9763 12.621 39.9786C17.5047 40.0113 22.3932 40.0169 27.2687 39.8996C27.5726 39.8929 27.8776 39.885 28.1814 39.876C28.2859 39.8726 28.3703 39.7948 28.3774 39.6944C28.3973 39.4092 28.4184 39.1239 28.4395 38.8386C28.5322 37.5521 28.6296 36.2668 28.7258 34.9814C29.154 29.2332 29.3159 23.4671 29.7441 17.719C29.9259 15.2779 30.1324 12.839 30.3693 10.4047C30.4339 9.74734 30.4562 8.95018 30.5535 8.22067C30.5664 8.12822 30.6462 8.05831 30.7436 8.05267C31.1272 8.03012 31.4885 7.99629 31.8405 7.91286C31.9331 7.89031 31.9988 7.81251 31.9977 7.72005L31.9836 6.61395H31.9847ZM29.2701 10.6482C28.3785 19.9458 27.8647 29.3347 27.338 38.6853C27.3321 38.7868 27.2465 38.868 27.1397 38.8702C26.4487 38.8849 25.7589 38.8973 25.0679 38.9063C20.9596 38.9593 16.8548 38.8206 12.7477 38.8217C12.6398 38.8217 12.5518 38.7417 12.5459 38.6379C12.0203 29.3032 11.5065 19.93 10.6161 10.6482C10.5445 9.90181 10.4988 9.23094 10.4214 8.59952C10.4073 8.48226 10.5023 8.37965 10.6255 8.38078C13.1888 8.41348 15.7556 8.44167 18.3212 8.43829C19.2844 8.43716 20.2464 8.43152 21.2095 8.41912C23.9042 8.38529 26.5977 8.30185 29.2842 8.13498C29.4109 8.12709 29.5141 8.23195 29.4977 8.35259C29.4003 9.05504 29.3511 9.80259 29.2701 10.6471V10.6482Z" fill="black"/>
</g>
</g>
<defs>
<clipPath id="clip0_207_4313">
<rect width="40" height="40" fill="white"/>
</clipPath>
<clipPath id="clip1_207_4313">
<rect width="40" height="40" fill="white"/>
</clipPath>
</defs>
</svg>
