<svg width="40" height="40" viewBox="0 0 40 40" fill="none" xmlns="http://www.w3.org/2000/svg">
<g clip-path="url(#clip0_207_4278)">
<g clip-path="url(#clip1_207_4278)">
<path d="M33.1484 39.1867C33.1484 39.4471 32.9316 39.6552 32.6749 39.6602C29.3603 39.73 26.0469 39.7337 22.7322 39.6602C22.6687 39.659 22.6163 39.6415 22.5665 39.6228C22.4743 39.6602 22.3746 39.6914 22.2625 39.7113C20.2089 40.0639 17.8251 39.7437 15.7503 39.7312C13.0438 39.715 10.3385 39.6864 7.63192 39.6876C7.36899 39.6876 7.16712 39.4696 7.1584 39.2141C6.86681 30.3892 6.98021 21.563 7.47865 12.7481C7.47865 12.6932 7.4936 12.6384 7.51728 12.5811C7.52102 12.5736 7.52226 12.5649 7.526 12.5574C7.53348 12.5412 7.53348 12.5263 7.54345 12.5088C8.67242 10.6534 9.9098 8.86145 11.1746 7.09697C11.5297 6.60102 11.8625 5.97796 12.3272 5.5655C12.3646 4.03279 12.4431 2.50133 12.4768 0.968619C12.4805 0.811609 12.5615 0.630924 12.711 0.559896C14.26 -0.180291 16.559 0.196033 18.2213 0.118774C20.3534 0.0203319 22.4369 -0.0581728 24.574 0.0614534C25.374 0.106313 26.8494 -0.095556 27.3889 0.625939C28.0232 1.47578 27.6444 4.09759 27.6456 5.30507C29.4089 7.17921 30.8282 9.43342 32.2001 11.5979C33.0026 12.8627 32.9191 13.9443 32.9815 15.4558C33.3079 23.3462 33.1821 31.2914 33.1484 39.1867ZM29.7989 9.6789C28.9952 8.50382 28.1727 7.32002 27.2219 6.2546C25.8076 8.25086 24.5902 10.4091 23.2581 12.4689C24.6911 12.53 26.0942 12.4029 27.5372 12.4091C28.8768 12.4153 30.2749 12.2396 31.6195 12.3182C31.1522 11.396 30.3397 10.4714 29.7976 9.67765L29.7989 9.6789ZM8.87678 13.1854C7.95217 13.7512 8.25871 15.882 8.21634 16.8477C8.17024 17.8945 8.1341 18.9412 8.09921 19.9892C12.7634 20.1636 17.6556 20.4216 22.3023 19.9967C22.2749 18.3717 22.2363 16.7468 22.1677 15.1244C22.1453 14.591 22.2163 13.9107 22.0643 13.3935C22.0543 13.3611 22.0444 13.3275 22.0357 13.2951C21.8325 13.3001 21.4076 13.2041 21.2494 13.1879C18.7098 12.9375 16.0469 12.7929 13.5011 13.0023C12.6201 13.0372 9.6718 12.6982 8.87678 13.1854ZM22.3609 32.7319C22.3646 31.2926 22.3721 29.8546 22.3671 28.4153C22.3596 25.9256 22.3534 23.4347 22.3198 20.9425C17.6568 21.3699 12.7472 21.1094 8.06806 20.935C8.03192 22.1587 8.00077 23.3823 7.98083 24.606C7.93472 27.33 7.92725 30.0552 7.9584 32.7792C12.7559 33.0446 17.5646 32.5375 22.3621 32.7319H22.3609ZM13.2506 5.11317C14.6213 4.7817 16.7908 5.1356 18.0357 5.10569C20.9241 5.03716 23.7977 4.76426 26.6824 4.98233C26.6525 4.21473 26.6276 3.44588 26.5964 2.67828C26.574 2.12251 26.4942 1.07952 26.5964 1.1655C25.8687 0.553665 22.721 0.92002 21.8188 0.912544C19.8612 0.897591 17.9011 1.07454 15.9434 1.1356C15.0512 1.16301 13.921 0.923759 13.4039 1.73747C13.04 2.30818 13.192 4.02282 13.2494 5.11192L13.2506 5.11317ZM8.8394 12.2396C10.3933 12.1786 11.9472 12.1163 13.5011 12.0552C16.1067 11.8421 18.8332 11.9917 21.4301 12.2583C21.754 12.292 22.002 12.3157 22.2051 12.3605C23.607 10.2359 24.8593 7.98295 26.3185 5.90195C23.8487 5.75242 21.3977 5.95678 18.9229 6.0303C17.2406 6.08015 15.3266 5.83965 13.6743 6.1437C12.8818 6.28949 13.2955 6.03653 12.7248 6.56613C12.2014 7.05086 11.7952 7.84837 11.3889 8.42656C10.5104 9.67765 9.6556 10.9474 8.8394 12.2409V12.2396ZM22.311 38.783C22.5117 37.6565 22.3472 36.3206 22.3559 35.1967C22.3596 34.6895 22.3559 34.1836 22.3584 33.6764C17.5671 33.4833 12.7646 33.9879 7.97335 33.725C7.98955 34.7942 8.007 35.8633 8.03441 36.9325C8.06806 38.1836 7.72289 38.7368 9.05871 38.7406C12.0506 38.7506 15.0438 38.7842 18.0357 38.7942C19.2382 38.7979 20.5503 38.6446 21.7453 38.7792C21.8861 38.7954 22.1191 38.8016 22.3086 38.783H22.311ZM32.1964 36.844C32.1852 35.6203 32.1615 34.3979 32.1428 33.1742C32.0768 28.9686 32.2462 24.7668 32.1802 20.5624C32.1515 18.7767 32.1017 16.991 32.0244 15.2066C31.9995 14.6259 32.0381 13.9007 31.9434 13.2839C30.3945 13.0957 28.5179 13.3076 26.9615 13.3636C25.6282 13.4122 24.3422 13.4907 23.0201 13.4072C23.678 16.3705 23.2456 19.9593 23.278 22.9636C23.3229 27.2129 23.3391 31.4633 23.3005 35.7125C23.293 36.5798 23.5347 37.8409 23.2955 38.7206C25.7229 38.7692 28.1491 38.7854 30.5765 38.7518C32.2276 38.7281 32.2139 38.4914 32.1989 36.844H32.1964Z" fill="black"/>
<path d="M11.9618 26.7571C12.2945 26.6114 12.6297 26.2699 12.9375 25.8786C12.8852 27.2992 12.8677 28.721 12.9749 30.1403C13.021 30.7447 13.9681 30.7497 13.922 30.1403C13.7724 28.1677 13.8634 26.1927 13.9544 24.2201C13.9768 23.7341 13.3089 23.5983 13.0721 23.9808C12.8117 24.402 12.2721 25.3166 11.7662 25.7478C11.1431 25.1733 10.6135 24.4967 9.91946 23.9796C9.6179 23.7553 9.21167 24.0618 9.20669 24.3883C9.17803 26.2936 9.14563 28.1989 9.19298 30.1042C9.20794 30.7123 10.155 30.7148 10.14 30.1042C10.1014 28.5466 10.1188 26.9902 10.14 25.4325C10.5512 25.8575 10.9288 26.311 11.3886 26.6824C11.5718 26.8307 11.75 26.8494 11.9618 26.7559V26.7571Z" fill="black"/>
<path d="M14.6812 30.1404C14.7174 30.746 15.6644 30.7498 15.6283 30.1404C15.5722 29.1909 15.6843 28.2413 15.6283 27.2906C15.5921 26.685 14.6451 26.6812 14.6812 27.2906C14.7373 28.2401 14.6252 29.1896 14.6812 30.1404Z" fill="black"/>
<path d="M15.6433 25.8693V25.8481C15.6433 25.2388 14.6963 25.2375 14.6963 25.8481V25.8693C14.6963 26.4786 15.6433 26.4799 15.6433 25.8693Z" fill="black"/>
<path d="M17.5907 30.1824C17.4337 28.1226 17.2854 26.0665 17.2742 24.0004C17.2717 23.3911 16.3247 23.3899 16.3272 24.0004C16.3384 26.0665 16.4867 28.1238 16.6437 30.1824C16.6898 30.7855 17.6368 30.7905 17.5907 30.1824Z" fill="black"/>
<path d="M19.4466 30.1408C19.4079 29.7869 19.3768 29.433 19.3444 29.0791C19.4702 29.2511 19.6011 29.4205 19.7244 29.595C19.9014 29.848 20.1145 30.0997 20.2466 30.3801C20.5057 30.9308 21.3219 30.4511 21.064 29.9015C20.912 29.5776 20.6603 29.2822 20.4547 28.9919C20.1693 28.5894 19.874 28.1969 19.5724 27.8068C19.9375 27.4829 20.3138 27.1726 20.7126 26.8897C21.2048 26.5396 20.7325 25.7184 20.2341 26.0723C19.8702 26.3302 19.5213 26.6081 19.1811 26.8959C19.1251 25.8878 19.0939 24.8785 19.0877 23.8667C19.0839 23.2573 18.1369 23.2561 18.1406 23.8667C18.1519 25.9651 18.2715 28.0548 18.4995 30.1408C18.5656 30.7402 19.5126 30.7464 19.4466 30.1408Z" fill="black"/>
</g>
</g>
<defs>
<clipPath id="clip0_207_4278">
<rect width="40" height="40" fill="white"/>
</clipPath>
<clipPath id="clip1_207_4278">
<rect width="40" height="40" fill="white"/>
</clipPath>
</defs>
</svg>
