<svg width="25" height="24" viewBox="0 0 25 24" fill="none" xmlns="http://www.w3.org/2000/svg">
<path d="M14.0898 19V20.75C14.0898 21.4404 13.5302 22 12.8398 22H11.3398C11.0083 22 10.6903 21.8683 10.4559 21.6339C10.2215 21.3995 10.0898 21.0815 10.0898 20.75V19" stroke="black" stroke-width="1.5" stroke-linecap="round" stroke-linejoin="round"/>
<path fill-rule="evenodd" clip-rule="evenodd" d="M10.2093 7H13.9702C16.0025 7.00479 17.7101 8.52896 17.9447 10.5477C18.1381 12.1768 18.1381 13.8231 17.9448 15.4523C17.7101 17.4711 16.0025 18.9953 13.9701 19C12.7727 19 11.4069 19 10.2094 19C8.17706 18.9952 6.46946 17.471 6.23483 15.4521C6.04149 13.823 6.04152 12.1768 6.23489 10.5477C6.46958 8.52896 8.17708 7.00482 10.2093 7Z" stroke="black" stroke-width="1.5" stroke-linecap="round" stroke-linejoin="round"/>
<path d="M9.08984 18.8395V17C9.08984 15.3431 10.4329 14 12.0898 14C13.7467 14 15.0898 15.3431 15.0898 17V18.8396" stroke="black" stroke-width="1.5" stroke-linecap="round" stroke-linejoin="round"/>
<path d="M18.0892 4H14.5391" stroke="black" stroke-width="1.5" stroke-linecap="round" stroke-linejoin="round"/>
<path d="M9.63997 4H6.08984" stroke="black" stroke-width="1.5" stroke-linecap="round" stroke-linejoin="round"/>
<path d="M12.0898 14V7" stroke="black" stroke-width="1.5" stroke-linecap="round" stroke-linejoin="round"/>
<path d="M12.0898 7C13.4706 7 14.5898 5.88071 14.5898 4.5C14.5898 3.11929 13.4706 2 12.0898 2C10.7091 2 9.58984 3.11929 9.58984 4.5C9.58984 5.88071 10.7091 7 12.0898 7Z" stroke="black" stroke-width="1.5" stroke-linecap="round" stroke-linejoin="round"/>
</svg>
