<svg width="18" height="18" viewBox="0 0 18 18" fill="none" xmlns="http://www.w3.org/2000/svg">
<path d="M16.1994 14.9338L15.6369 14.0619C15.5244 13.8932 15.4682 13.7244 15.4682 13.5275V7.67754C15.4682 6.01816 14.765 4.47129 13.4713 3.31816C12.4307 2.39004 11.0807 1.79941 9.64629 1.68691V1.12441C9.64629 0.786914 9.36504 0.477539 8.99941 0.477539C8.66191 0.477539 8.35254 0.758789 8.35254 1.12441V1.65879C8.29629 1.65879 8.24004 1.65879 8.18379 1.68691C4.92129 2.05254 2.47441 4.66816 2.47441 7.79004V13.5275C2.44629 13.8088 2.39004 13.9494 2.33379 14.0338L1.79941 14.9338C1.63066 15.215 1.63066 15.5525 1.79941 15.8338C1.96816 16.0869 2.24941 16.2557 2.55879 16.2557H8.38066V16.8744C8.38066 17.2119 8.66191 17.5213 9.02754 17.5213C9.36504 17.5213 9.67441 17.24 9.67441 16.8744V16.2557H15.4682C15.7775 16.2557 16.0588 16.0869 16.2275 15.8338C16.3963 15.5525 16.3963 15.215 16.1994 14.9338ZM3.23379 14.99L3.43066 14.6525C3.59941 14.3713 3.68379 14.0338 3.74004 13.64V7.79004C3.74004 5.31504 5.70879 3.23379 8.32441 2.95254C9.92754 2.78379 11.5025 3.26191 12.6557 4.27441C13.6682 5.17441 14.2307 6.38379 14.2307 7.67754V13.5275C14.2307 13.9494 14.3432 14.3432 14.5963 14.7369L14.765 14.99H3.23379Z" fill="#64748B"/>
</svg>
