<svg width="17" height="16" viewBox="0 0 17 16" fill="none" xmlns="http://www.w3.org/2000/svg">
<path d="M5.98007 2.8457L11.9801 6.27904" stroke="#71717A" stroke-width="1.33333" stroke-linecap="round" stroke-linejoin="round"/>
<path d="M14.9801 5.33262C14.9798 5.0988 14.9181 4.86916 14.8011 4.66673C14.6841 4.46429 14.5159 4.29619 14.3134 4.17928L9.64674 1.51262C9.44405 1.39559 9.21412 1.33398 8.98007 1.33398C8.74602 1.33398 8.5161 1.39559 8.31341 1.51262L3.64674 4.17928C3.44425 4.29619 3.27606 4.46429 3.15905 4.66673C3.04203 4.86916 2.98031 5.0988 2.98007 5.33262V10.666C2.98031 10.8998 3.04203 11.1294 3.15905 11.3318C3.27606 11.5343 3.44425 11.7024 3.64674 11.8193L8.31341 14.486C8.5161 14.603 8.74602 14.6646 8.98007 14.6646C9.21412 14.6646 9.44405 14.603 9.64674 14.486L14.3134 11.8193C14.5159 11.7024 14.6841 11.5343 14.8011 11.3318C14.9181 11.1294 14.9798 10.8998 14.9801 10.666V5.33262Z" stroke="#71717A" stroke-width="1.33333" stroke-linecap="round" stroke-linejoin="round"/>
<path d="M3.18008 4.66602L8.98008 7.99935L14.7801 4.66602" stroke="#71717A" stroke-width="1.33333" stroke-linecap="round" stroke-linejoin="round"/>
<path d="M8.98007 14.6667V8" stroke="#71717A" stroke-width="1.33333" stroke-linecap="round" stroke-linejoin="round"/>
</svg>
