<svg width="33" height="32" viewBox="0 0 33 32" fill="none" xmlns="http://www.w3.org/2000/svg">
<path fill-rule="evenodd" clip-rule="evenodd" d="M18.678 7.80439C18.222 5.93239 15.558 5.93239 15.102 7.80439C15.034 8.08569 14.9004 8.34694 14.7123 8.56688C14.5242 8.78683 14.2868 8.95925 14.0195 9.07011C13.7521 9.18098 13.4624 9.22716 13.1738 9.2049C12.8852 9.18263 12.606 9.09256 12.3588 8.94199C10.7124 7.93879 8.82844 9.82279 9.83164 11.4692C10.4796 12.5324 9.90484 13.9196 8.69524 14.2136C6.82204 14.6684 6.82204 17.3336 8.69524 17.7872C8.97662 17.8554 9.23792 17.989 9.45786 18.1773C9.6778 18.3655 9.85017 18.6031 9.96093 18.8706C10.0717 19.1381 10.1177 19.4279 10.0952 19.7166C10.0728 20.0052 9.98246 20.2845 9.83164 20.5316C8.82844 22.178 10.7124 24.062 12.3588 23.0588C12.606 22.908 12.8852 22.8177 13.1739 22.7952C13.4625 22.7727 13.7524 22.8187 14.0199 22.9295C14.2873 23.0403 14.5249 23.2126 14.7132 23.4326C14.9014 23.6525 15.0351 23.9138 15.1032 24.1952C15.558 26.0684 18.2232 26.0684 18.6768 24.1952C18.7452 23.914 18.879 23.6528 19.0673 23.4331C19.2556 23.2133 19.4931 23.041 19.7605 22.9303C20.028 22.8195 20.3177 22.7735 20.6063 22.7958C20.8948 22.8181 21.1741 22.9082 21.4212 23.0588C23.0676 24.062 24.9516 22.178 23.9484 20.5316C23.7979 20.2844 23.7078 20.0052 23.6855 19.7166C23.6631 19.4281 23.7092 19.1383 23.8199 18.8709C23.9307 18.6035 24.1029 18.366 24.3227 18.1777C24.5425 17.9894 24.8036 17.8556 25.0848 17.7872C26.958 17.3324 26.958 14.6672 25.0848 14.2136C24.8035 14.1454 24.5422 14.0118 24.3222 13.8235C24.1023 13.6352 23.9299 13.3977 23.8192 13.1302C23.7084 12.8627 23.6624 12.5729 23.6848 12.2842C23.7073 11.9956 23.7976 11.7163 23.9484 11.4692C24.9516 9.82279 23.0676 7.93879 21.4212 8.94199C21.1741 9.09281 20.8949 9.18313 20.6062 9.20559C20.3176 9.22806 20.0277 9.18204 19.7602 9.07128C19.4927 8.96052 19.2552 8.78815 19.0669 8.5682C18.8787 8.34826 18.745 8.08696 18.6768 7.80559L18.678 7.80439ZM16.89 19.6004C17.8448 19.6004 18.7605 19.2211 19.4356 18.546C20.1108 17.8708 20.49 16.9552 20.49 16.0004C20.49 15.0456 20.1108 14.1299 19.4356 13.4548C18.7605 12.7797 17.8448 12.4004 16.89 12.4004C15.9353 12.4004 15.0196 12.7797 14.3445 13.4548C13.6693 14.1299 13.29 15.0456 13.29 16.0004C13.29 16.9552 13.6693 17.8708 14.3445 18.546C15.0196 19.2211 15.9353 19.6004 16.89 19.6004Z" fill="#6B7280"/>
</svg>
