<svg width="25" height="24" viewBox="0 0 25 24" fill="none" xmlns="http://www.w3.org/2000/svg">
<path d="M3.2793 21H21.2793" stroke="black" stroke-width="1.5" stroke-linecap="round" stroke-linejoin="round"/>
<path d="M4.2793 21.0016L4.2794 10.957" stroke="black" stroke-width="1.5" stroke-linecap="round" stroke-linejoin="round"/>
<path d="M20.3516 21.0004L20.3517 10.9414" stroke="black" stroke-width="1.5" stroke-linecap="round" stroke-linejoin="round"/>
<path fill-rule="evenodd" clip-rule="evenodd" d="M22.0029 7.47765C22.298 8.03345 22.3566 8.68474 22.1656 9.28433C21.8351 10.3245 20.859 11.0228 19.7678 10.9994C18.6766 10.9761 17.7312 10.2368 17.4455 9.18341C17.4274 9.12223 17.3712 9.08025 17.3074 9.08025C17.2436 9.08025 17.1874 9.12223 17.1693 9.18341C16.8775 10.2555 15.9039 10.9995 14.7928 10.9994C13.6817 10.9993 12.7082 10.2551 12.4167 9.1829C12.3986 9.12169 12.3424 9.07968 12.2786 9.07968C12.2148 9.07968 12.1586 9.12169 12.1405 9.1829C11.8488 10.2551 10.8753 10.9992 9.76413 10.9991C8.65296 10.9991 7.67946 10.255 7.38788 9.18273C7.36975 9.12156 7.31354 9.0796 7.24975 9.0796C7.18595 9.0796 7.12975 9.12156 7.11162 9.18273C6.82588 10.236 5.88054 10.9752 4.78946 10.9986C3.69838 11.0219 2.72226 10.3239 2.3917 9.28381C2.20056 8.68412 2.25922 8.0327 2.55442 7.47681L4.26114 4.09822C4.60137 3.4247 5.29171 3 6.0463 3H18.5106C19.2652 3 19.9555 3.4247 20.2958 4.09822L22.0029 7.47765Z" stroke="black" stroke-width="1.5" stroke-linecap="round" stroke-linejoin="round"/>
<path d="M14.2793 21.0004V10.9414" stroke="black" stroke-width="1.5" stroke-linecap="round" stroke-linejoin="round"/>
<path d="M14.2793 16H4.2793" stroke="black" stroke-width="1.5" stroke-linecap="round" stroke-linejoin="round"/>
</svg>
