<svg width="21" height="21" viewBox="0 0 21 21" fill="none" xmlns="http://www.w3.org/2000/svg">
<path fill-rule="evenodd" clip-rule="evenodd" d="M9.31006 2.4502C9.1244 2.45029 8.94243 2.50208 8.78453 2.59975C8.62664 2.69742 8.49905 2.83711 8.41606 3.0032L7.69206 4.4502H4.31006C4.04484 4.4502 3.79049 4.55555 3.60295 4.74309C3.41542 4.93063 3.31006 5.18498 3.31006 5.4502C3.31006 5.71541 3.41542 5.96977 3.60295 6.1573C3.79049 6.34484 4.04484 6.4502 4.31006 6.4502V16.4502C4.31006 16.9806 4.52077 17.4893 4.89584 17.8644C5.27092 18.2395 5.77963 18.4502 6.31006 18.4502H14.3101C14.8405 18.4502 15.3492 18.2395 15.7243 17.8644C16.0993 17.4893 16.3101 16.9806 16.3101 16.4502V6.4502C16.5753 6.4502 16.8296 6.34484 17.0172 6.1573C17.2047 5.96977 17.3101 5.71541 17.3101 5.4502C17.3101 5.18498 17.2047 4.93063 17.0172 4.74309C16.8296 4.55555 16.5753 4.4502 16.3101 4.4502H12.9281L12.2041 3.0032C12.1211 2.83711 11.9935 2.69742 11.8356 2.59975C11.6777 2.50208 11.4957 2.45029 11.3101 2.4502H9.31006ZM7.31006 8.4502C7.31006 8.18498 7.41542 7.93062 7.60295 7.74309C7.79049 7.55555 8.04484 7.4502 8.31006 7.4502C8.57527 7.4502 8.82963 7.55555 9.01717 7.74309C9.2047 7.93062 9.31006 8.18498 9.31006 8.4502V14.4502C9.31006 14.7154 9.2047 14.9698 9.01717 15.1573C8.82963 15.3448 8.57527 15.4502 8.31006 15.4502C8.04484 15.4502 7.79049 15.3448 7.60295 15.1573C7.41542 14.9698 7.31006 14.7154 7.31006 14.4502V8.4502ZM12.3101 7.4502C12.0448 7.4502 11.7905 7.55555 11.603 7.74309C11.4154 7.93062 11.3101 8.18498 11.3101 8.4502V14.4502C11.3101 14.7154 11.4154 14.9698 11.603 15.1573C11.7905 15.3448 12.0448 15.4502 12.3101 15.4502C12.5753 15.4502 12.8296 15.3448 13.0172 15.1573C13.2047 14.9698 13.3101 14.7154 13.3101 14.4502V8.4502C13.3101 8.18498 13.2047 7.93062 13.0172 7.74309C12.8296 7.55555 12.5753 7.4502 12.3101 7.4502Z" fill="white"/>
</svg>
