<svg width="50" height="50" viewBox="0 0 32 32" fill="#000000" xmlns="http://www.w3.org/2000/svg">
<path fill-rule="evenodd" clip-rule="evenodd" d="M14.8 6.40039C14.5772 6.40051 14.3588 6.46265 14.1693 6.57985C13.9799 6.69706 13.8268 6.86469 13.7272 7.06399L12.8584 8.80039H8.79998C8.48172 8.80039 8.17649 8.92682 7.95145 9.15186C7.7264 9.37691 7.59998 9.68213 7.59998 10.0004C7.59998 10.3187 7.7264 10.6239 7.95145 10.8489C8.17649 11.074 8.48172 11.2004 8.79998 11.2004V23.2004C8.79998 23.8369 9.05283 24.4474 9.50292 24.8974C9.95301 25.3475 10.5635 25.6004 11.2 25.6004H20.8C21.4365 25.6004 22.0469 25.3475 22.497 24.8974C22.9471 24.4474 23.2 23.8369 23.2 23.2004V11.2004C23.5182 11.2004 23.8235 11.074 24.0485 10.8489C24.2735 10.6239 24.4 10.3187 24.4 10.0004C24.4 9.68213 24.2735 9.37691 24.0485 9.15186C23.8235 8.92682 23.5182 8.80039 23.2 8.80039H19.1416L18.2728 7.06399C18.1732 6.86469 18.0201 6.69706 17.8306 6.57985C17.6411 6.46265 17.4228 6.40051 17.2 6.40039H14.8ZM12.4 13.6004C12.4 13.2821 12.5264 12.9769 12.7514 12.7519C12.9765 12.5268 13.2817 12.4004 13.6 12.4004C13.9182 12.4004 14.2235 12.5268 14.4485 12.7519C14.6735 12.9769 14.8 13.2821 14.8 13.6004V20.8004C14.8 21.1187 14.6735 21.4239 14.4485 21.6489C14.2235 21.874 13.9182 22.0004 13.6 22.0004C13.2817 22.0004 12.9765 21.874 12.7514 21.6489C12.5264 21.4239 12.4 21.1187 12.4 20.8004V13.6004ZM18.4 12.4004C18.0817 12.4004 17.7765 12.5268 17.5514 12.7519C17.3264 12.9769 17.2 13.2821 17.2 13.6004V20.8004C17.2 21.1187 17.3264 21.4239 17.5514 21.6489C17.7765 21.874 18.0817 22.0004 18.4 22.0004C18.7182 22.0004 19.0235 21.874 19.2485 21.6489C19.4735 21.4239 19.6 21.1187 19.6 20.8004V13.6004C19.6 13.2821 19.4735 12.9769 19.2485 12.7519C19.0235 12.5268 18.7182 12.4004 18.4 12.4004Z" fill="#6B7280"/>
</svg>
