<svg width="18" height="19" viewBox="0 0 18 19" fill="none" xmlns="http://www.w3.org/2000/svg">
<path d="M13.7535 3.27519H11.5879V2.79707C11.5879 1.95332 10.9129 1.27832 10.0691 1.27832H7.90352C7.05977 1.27832 6.38477 1.95332 6.38477 2.79707V3.27519H4.21914C3.40352 3.27519 2.72852 3.95019 2.72852 4.76582V5.60957C2.72852 6.22832 3.09414 6.73457 3.62852 6.95957L4.07852 16.269C4.13477 17.4221 5.09102 18.3221 6.24414 18.3221H11.7004C12.8535 18.3221 13.8098 17.4221 13.866 16.269L14.3441 6.93144C14.8785 6.70644 15.2441 6.17207 15.2441 5.58144V4.73769C15.2441 3.95019 14.5691 3.27519 13.7535 3.27519ZM7.67852 2.79707C7.67852 2.65644 7.79102 2.54394 7.93164 2.54394H10.0973C10.2379 2.54394 10.3504 2.65644 10.3504 2.79707V3.27519H7.70664V2.79707H7.67852ZM4.02227 4.76582C4.02227 4.65332 4.10664 4.54082 4.24727 4.54082H13.7535C13.866 4.54082 13.9785 4.62519 13.9785 4.76582V5.60957C13.9785 5.72207 13.8941 5.83457 13.7535 5.83457H4.24727C4.13477 5.83457 4.02227 5.75019 4.02227 5.60957V4.76582ZM11.7285 17.0565H6.27227C5.79414 17.0565 5.40039 16.6908 5.37227 16.1846L4.95039 7.07207H13.0785L12.6566 16.1846C12.6004 16.6627 12.2066 17.0565 11.7285 17.0565Z" fill="#64748B"/>
<path d="M9.00039 9.91211C8.66289 9.91211 8.35352 10.1934 8.35352 10.559V14.1309C8.35352 14.4684 8.63477 14.7778 9.00039 14.7778C9.33789 14.7778 9.64727 14.4965 9.64727 14.1309V10.559C9.64727 10.1934 9.33789 9.91211 9.00039 9.91211Z" fill="#64748B"/>
<path d="M11.2502 10.4748C10.8846 10.4467 10.6033 10.6998 10.5752 11.0654L10.4064 13.5404C10.3783 13.8779 10.6314 14.1872 10.9971 14.2154C11.0252 14.2154 11.0252 14.2154 11.0533 14.2154C11.3908 14.2154 11.6721 13.9622 11.6721 13.6247L11.8408 11.1497C11.8408 10.7842 11.5877 10.5029 11.2502 10.4748Z" fill="#64748B"/>
<path d="M6.72245 10.4748C6.38495 10.5029 6.1037 10.8122 6.13182 11.1497L6.3287 13.6247C6.35683 13.9622 6.63808 14.2154 6.94745 14.2154C6.97558 14.2154 6.97558 14.2154 7.0037 14.2154C7.3412 14.1872 7.62245 13.8779 7.59433 13.5404L7.39745 11.0654C7.39745 10.6998 7.08808 10.4467 6.72245 10.4748Z" fill="#64748B"/>
</svg>
