<svg width="25" height="23" viewBox="0 0 25 23" fill="none" xmlns="http://www.w3.org/2000/svg">
<path d="M24.5014 20.9759C22.9779 18.3198 20.5991 16.2502 17.7477 15.1003C19.1657 14.0438 20.2131 12.571 20.7415 10.8904C21.27 9.20975 21.2528 7.40654 20.6923 5.73619C20.1318 4.06583 19.0565 2.613 17.6186 1.5835C16.1808 0.55399 14.4533 0 12.6808 0C10.9084 0 9.18092 0.55399 7.74305 1.5835C6.30519 2.613 5.22985 4.06583 4.66936 5.73619C4.10887 7.40654 4.09165 9.20975 4.62013 10.8904C5.1486 12.571 6.196 14.0438 7.61393 15.1003C4.76261 16.2502 2.38374 18.3198 0.860289 20.9759C0.76589 21.1267 0.702974 21.2948 0.67528 21.4702C0.647587 21.6456 0.655681 21.8248 0.699082 21.997C0.742484 22.1693 0.820306 22.3311 0.927922 22.4729C1.03554 22.6147 1.17075 22.7335 1.32553 22.8223C1.4803 22.9112 1.65147 22.9682 1.82887 22.99C2.00626 23.0118 2.18626 22.9979 2.35816 22.9492C2.53005 22.9006 2.69034 22.818 2.8295 22.7066C2.96865 22.5951 3.08382 22.457 3.16817 22.3005C5.1816 18.8433 8.73732 16.7814 12.6808 16.7814C16.6244 16.7814 20.1801 18.8444 22.1935 22.3005C22.3763 22.5925 22.6662 22.8024 23.002 22.8859C23.3378 22.9694 23.6931 22.9199 23.9928 22.7479C24.2925 22.5758 24.5132 22.2948 24.6081 21.9641C24.703 21.6334 24.6647 21.2791 24.5014 20.9759ZM6.90279 8.39234C6.90279 7.2571 7.24167 6.14736 7.87657 5.20345C8.51147 4.25953 9.41387 3.52384 10.4697 3.0894C11.5255 2.65496 12.6872 2.5413 13.8081 2.76277C14.9289 2.98424 15.9585 3.53091 16.7665 4.33365C17.5746 5.13638 18.1249 6.15913 18.3479 7.27255C18.5708 8.38597 18.4564 9.54007 18.0191 10.5889C17.5817 11.6377 16.8411 12.5342 15.8909 13.1649C14.9407 13.7956 13.8236 14.1322 12.6808 14.1322C11.1489 14.1305 9.6803 13.5252 8.59709 12.4491C7.51388 11.373 6.90455 9.91411 6.90279 8.39234Z" fill="black"/>
</svg>
